<svg width="30" height="30" viewBox="0 0 30 30" fill="none" xmlns="http://www.w3.org/2000/svg">
<g id="Automation">
<path id="Vector" d="M15.0028 0L2.01245 7.50057V22.4994L15.0028 30L27.9931 22.4994V7.50057L15.0028 0ZM24.3424 16.7417C24.2897 16.7143 24.2393 16.6891 24.1844 16.6662C23.1767 16.2493 22.0224 16.728 21.6055 17.7357C21.1887 18.7434 21.6674 19.8977 22.6728 20.3145C22.7278 20.3374 22.7827 20.3557 22.84 20.3741C22.1781 21.3383 21.3422 22.1742 20.378 22.8361C20.3597 22.7811 20.3413 22.7239 20.3184 22.6689C19.9016 21.6612 18.7473 21.1825 17.7396 21.5994C16.7319 22.0162 16.2532 23.1705 16.6723 24.1782C16.6952 24.2331 16.7204 24.2858 16.7479 24.3362C16.1822 24.4416 15.6028 24.4988 15.0073 24.4988C14.4119 24.4988 13.8301 24.4416 13.2667 24.3362C13.2942 24.2835 13.3194 24.2331 13.3423 24.1782C13.7591 23.1705 13.2805 22.0162 12.2728 21.5994C11.2651 21.1825 10.1108 21.6612 9.69395 22.6689C9.67105 22.7239 9.65273 22.7788 9.63441 22.8361C8.67021 22.1742 7.83427 21.3383 7.17239 20.3741C7.22735 20.3557 7.28461 20.3374 7.33957 20.3145C8.34728 19.8977 8.82595 18.7434 8.40912 17.7357C7.9923 16.728 6.83801 16.2493 5.8303 16.6662C5.77533 16.6891 5.72266 16.7143 5.67227 16.7417C5.56692 16.176 5.50966 15.5966 5.50966 15.0011C5.50966 14.4057 5.56692 13.824 5.67227 13.2606C5.72495 13.288 5.77533 13.3132 5.8303 13.3361C6.83801 13.753 7.9923 13.2743 8.40912 12.2689C8.82595 11.2612 8.34728 10.1069 7.33957 9.69005C7.28461 9.66715 7.22964 9.64883 7.17239 9.6305C7.83427 8.66631 8.67021 7.83037 9.63441 7.16848C9.65273 7.22345 9.67105 7.28071 9.69395 7.33567C10.1108 8.34338 11.2651 8.82205 12.2728 8.40293C13.2805 7.9861 13.7591 6.83182 13.3423 5.82411C13.3194 5.76914 13.2942 5.71647 13.2667 5.66608C13.8324 5.56073 14.4119 5.50347 15.0073 5.50347C15.6028 5.50347 16.1845 5.56073 16.7479 5.66608C16.7204 5.71876 16.6952 5.76914 16.6723 5.82411C16.2555 6.83182 16.7342 7.9861 17.7396 8.40293C18.7473 8.81976 19.9016 8.34109 20.3184 7.33567C20.3413 7.28071 20.3597 7.22574 20.378 7.16848C21.3422 7.83037 22.1781 8.66631 22.84 9.6305C22.785 9.64883 22.7278 9.66715 22.6728 9.69005C21.6651 10.1069 21.1864 11.2612 21.6055 12.2689C22.0224 13.2766 23.1767 13.7552 24.1844 13.3361C24.2393 13.3132 24.292 13.288 24.3424 13.2606C24.4477 13.8262 24.505 14.4057 24.505 15.0011C24.505 15.5966 24.4477 16.1783 24.3424 16.7417Z" fill="url(#paint0_linear_497_614)"/>
<path id="Vector_2" d="M24.3424 13.2583C24.2897 13.2858 24.2393 13.311 24.1843 13.3339C23.1766 13.7507 22.0224 13.272 21.6055 12.2666C21.1887 11.2589 21.6674 10.1046 22.6728 9.6878C22.7277 9.6649 22.7827 9.64657 22.84 9.62825C22.1781 8.66406 21.3421 7.82812 20.378 7.16623C20.3596 7.2212 20.3413 7.27846 20.3184 7.33342C19.9016 8.34113 18.7473 8.81979 17.7396 8.40068C16.7319 7.98385 16.2532 6.82957 16.6723 5.82186C16.6952 5.76689 16.7204 5.71421 16.7479 5.66383C16.1822 5.55848 15.6028 5.50122 15.0073 5.50122C14.4118 5.50122 13.8301 5.55848 13.2667 5.66383C13.2942 5.7165 13.3194 5.76689 13.3423 5.82186C13.7591 6.82957 13.2805 7.98385 12.2728 8.40068C11.265 8.8175 10.1108 8.33884 9.69393 7.33342C9.67103 7.27846 9.65271 7.22349 9.63439 7.16623C8.67019 7.82812 7.83425 8.66406 7.17237 9.62825C7.22733 9.64657 7.28459 9.6649 7.33955 9.6878C8.34726 10.1046 8.82593 11.2589 8.4091 12.2666C7.99228 13.2743 6.83799 13.753 5.83028 13.3339C5.77531 13.311 5.72264 13.2858 5.67225 13.2583C5.5669 13.824 5.50964 14.4034 5.50964 14.9989C5.50964 15.5944 5.5669 16.1761 5.67225 16.7395C5.72493 16.712 5.77531 16.6868 5.83028 16.6639C6.83799 16.2471 7.99228 16.7257 8.4091 17.7334C8.82593 18.7412 8.34726 19.8954 7.33955 20.3123C7.28459 20.3352 7.22962 20.3535 7.17237 20.3718C7.83425 21.336 8.67019 22.172 9.63439 22.8338C9.65271 22.7789 9.67103 22.7216 9.69393 22.6666C10.1108 21.6589 11.265 21.1803 12.2728 21.5971C13.2805 22.0139 13.7591 23.1682 13.3423 24.1759C13.3194 24.2309 13.2942 24.2836 13.2667 24.334C13.8324 24.4393 14.4118 24.4966 15.0073 24.4966C15.6028 24.4966 16.1845 24.4393 16.7479 24.334C16.7204 24.2813 16.6952 24.2309 16.6723 24.1759C16.2555 23.1682 16.7342 22.0139 17.7396 21.5971C18.7473 21.1803 19.9016 21.6589 20.3184 22.6666C20.3413 22.7216 20.3596 22.7766 20.378 22.8338C21.3421 22.172 22.1781 21.336 22.84 20.3718C22.785 20.3535 22.7277 20.3352 22.6728 20.3123C21.6651 19.8954 21.1864 18.7412 21.6055 17.7334C22.0224 16.7257 23.1766 16.2471 24.1843 16.6639C24.2393 16.6868 24.292 16.712 24.3424 16.7395C24.4477 16.1738 24.505 15.5944 24.505 14.9989C24.505 14.4034 24.4477 13.8217 24.3424 13.2583ZM16.78 18.077C15.6806 18.7114 14.3271 18.7114 13.2278 18.077C12.1285 17.4426 11.4506 16.27 11.4506 14.9989C11.4506 13.7278 12.1285 12.5575 13.2278 11.9208C14.3271 11.2864 15.6806 11.2864 16.78 11.9208C17.8793 12.5552 18.5572 13.7278 18.5572 14.9989C18.5572 16.27 17.8793 17.4403 16.78 18.077Z" fill="white"/>
</g>
<defs>
<linearGradient id="paint0_linear_497_614" x1="21.4979" y1="3.74914" x2="8.5076" y2="26.2509" gradientUnits="userSpaceOnUse">
<stop stop-color="#7790E2"/>
<stop offset="1" stop-color="#486DDC"/>
</linearGradient>
</defs>
</svg>
