<svg width="24" height="24" viewBox="0 0 24 24" fill="none" xmlns="http://www.w3.org/2000/svg">
<g id="AVAX" clip-path="url(#clip0_628_21467)">
<path id="Vector" d="M19.3808 4.10107H4.57227V17.5692H19.3808V4.10107Z" fill="white"/>
<path id="Vector_2" fill-rule="evenodd" clip-rule="evenodd" d="M23.9681 11.984C23.9681 18.6027 18.6027 23.9681 11.984 23.9681C5.36544 23.9681 0 18.6027 0 11.984C0 5.36544 5.36544 0 11.984 0C18.6027 0 23.9681 5.36544 23.9681 11.984ZM8.58811 16.7531H6.26234C5.77363 16.7531 5.53222 16.7531 5.38503 16.6589C5.22605 16.5559 5.1289 16.3851 5.11712 16.1966C5.10828 16.023 5.229 15.811 5.4704 15.387L11.213 5.26492C11.4574 4.83509 11.581 4.62018 11.737 4.54069C11.9048 4.45532 12.105 4.45532 12.2729 4.54069C12.4289 4.62018 12.5525 4.83509 12.7969 5.26492L13.9774 7.32573L13.9835 7.33624C14.2474 7.79737 14.3812 8.03121 14.4397 8.27663C14.5044 8.54454 14.5044 8.82716 14.4397 9.09507C14.3808 9.34237 14.2483 9.5779 13.9804 10.046L10.9639 15.3782L10.9561 15.3919C10.6905 15.8568 10.5558 16.0924 10.3692 16.2702C10.1661 16.4646 9.92175 16.6058 9.65384 16.6854C9.40948 16.7531 9.1357 16.7531 8.58811 16.7531ZM14.4614 16.7531H17.794C18.2856 16.7531 18.533 16.7531 18.6803 16.6561C18.8392 16.553 18.9393 16.3792 18.9482 16.1909C18.9566 16.0229 18.8386 15.8191 18.6072 15.4198C18.5992 15.4062 18.5912 15.3924 18.5831 15.3783L16.9138 12.5226L16.8948 12.4905C16.6602 12.0938 16.5418 11.8935 16.3897 11.816C16.222 11.7307 16.0246 11.7307 15.8569 11.816C15.7038 11.8955 15.5802 12.1046 15.3358 12.5255L13.6724 15.3812L13.6667 15.3911C13.4232 15.8114 13.3016 16.0214 13.3103 16.1938C13.3221 16.3822 13.4193 16.5559 13.5782 16.6589C13.7225 16.7531 13.9698 16.7531 14.4614 16.7531Z" fill="#E84142"/>
</g>
<defs>
<clipPath id="clip0_628_21467">
<rect width="24" height="24" fill="white"/>
</clipPath>
</defs>
</svg>
