<svg width="24" height="24" viewBox="0 0 24 24" fill="none" xmlns="http://www.w3.org/2000/svg">
<path d="M16.7 4.02788C18.5015 4.08351 20.3006 3.85849 22.033 3.36088C22.0816 3.34374 22.1238 3.31195 22.1537 3.26988C22.1836 3.2278 22.1998 3.1775 22.2 3.12588V3.02588C22.1997 2.89338 22.1468 2.76642 22.053 2.67288C21.936 2.55588 20.789 1.52588 16.7 1.52588C12.611 1.52588 11.463 2.55588 11.346 2.67288C11.2525 2.76658 11.2 2.89353 11.2 3.02588V3.13988C11.1999 3.1922 11.2163 3.24322 11.2468 3.28574C11.2773 3.32826 11.3204 3.36013 11.37 3.37688C13.1043 3.858 14.9008 4.07742 16.7 4.02788Z" fill="white"/>
<path d="M16.7 9.02819C18.5015 9.08382 20.3007 8.85879 22.033 8.36119C22.0817 8.34405 22.1239 8.31226 22.1538 8.27018C22.1837 8.22811 22.1998 8.1778 22.2 8.12619V4.70019C22.1998 4.6614 22.1907 4.62318 22.1734 4.58849C22.156 4.5538 22.1309 4.52358 22.1 4.50019C22.0691 4.47691 22.0332 4.46118 21.9952 4.45423C21.9572 4.44729 21.9181 4.44933 21.881 4.46019C20.1817 4.84903 18.4431 5.03997 16.7 5.02919C14.9565 5.04004 13.2176 4.84911 11.518 4.46019C11.4809 4.4494 11.4418 4.44741 11.4038 4.45435C11.3657 4.46129 11.3299 4.47698 11.299 4.50019C11.2682 4.52368 11.2431 4.55392 11.2258 4.58859C11.2084 4.62326 11.1993 4.66143 11.199 4.70019V8.14219C11.1989 8.19451 11.2153 8.24553 11.2458 8.28805C11.2763 8.33056 11.3194 8.36244 11.369 8.37919C13.1038 8.85973 14.9006 9.07847 16.7 9.02819Z" fill="white"/>
<path d="M16.7 10.0281C14.9565 10.039 13.2176 9.84803 11.518 9.45911C11.4809 9.44833 11.4418 9.44633 11.4038 9.45327C11.3657 9.46021 11.3299 9.47591 11.299 9.49911C11.2682 9.52261 11.2431 9.55285 11.2258 9.58751C11.2084 9.62218 11.1993 9.66035 11.199 9.69911V12.5281C11.199 13.8821 15.045 14.0281 16.699 14.0281C18.353 14.0281 22.199 13.8821 22.199 12.5281V9.70011C22.1988 9.66132 22.1897 9.6231 22.1724 9.58841C22.155 9.55372 22.1299 9.5235 22.099 9.50011C22.0681 9.47684 22.0322 9.4611 21.9942 9.45415C21.9562 9.44721 21.9171 9.44925 21.88 9.46011C20.181 9.84854 18.4428 10.0391 16.7 10.0281Z" fill="white"/>
<path d="M20.705 16.5268H20.694L17.173 17.6998C17.139 17.7116 17.1079 17.7304 17.0817 17.7551C17.0555 17.7797 17.0348 17.8096 17.021 17.8428C16.8639 18.1948 16.6085 18.4939 16.2854 18.7042C15.9623 18.9144 15.5854 19.0268 15.2 19.0278H11.2C11.0673 19.0278 10.9402 18.9752 10.8464 18.8814C10.7526 18.7876 10.7 18.6604 10.7 18.5278C10.7 18.3952 10.7526 18.268 10.8464 18.1743C10.9402 18.0805 11.0673 18.0278 11.2 18.0278H15.2C15.4652 18.0278 15.7195 17.9225 15.9071 17.7349C16.0946 17.5474 16.2 17.293 16.2 17.0278C16.2 16.7626 16.0946 16.5083 15.9071 16.3207C15.7195 16.1332 15.4652 16.0278 15.2 16.0278H11.7C10.5515 15.1304 9.15534 14.6069 7.69996 14.5278H5.64396C5.02287 14.528 4.41036 14.6729 3.85496 14.9508L0.837956 16.4588C0.796406 16.4797 0.761483 16.5116 0.737106 16.5512C0.712729 16.5908 0.699864 16.6364 0.699956 16.6828V22.0768C0.699687 22.1215 0.711444 22.1654 0.733994 22.204C0.756545 22.2426 0.789057 22.2744 0.828123 22.296C0.867189 22.3177 0.911368 22.3285 0.956028 22.3272C1.00069 22.326 1.04419 22.3127 1.08196 22.2888L4.29996 20.2788C4.42677 20.2004 4.56925 20.1508 4.71734 20.1335C4.86542 20.1163 5.0155 20.1317 5.15696 20.1788C15.121 23.5368 11.786 23.5518 23.018 17.8698C23.0949 17.8296 23.1605 17.7707 23.2089 17.6987C23.2574 17.6266 23.287 17.5435 23.2951 17.4571C23.3033 17.3706 23.2897 17.2835 23.2556 17.2037C23.2215 17.1238 23.168 17.0538 23.1 16.9998C22.7756 16.7209 22.3845 16.5307 21.9648 16.4478C21.5451 16.3649 21.111 16.3921 20.705 16.5268Z" fill="white"/>
</svg>
