<svg width="16" height="16" viewBox="0 0 16 16" fill="none" xmlns="http://www.w3.org/2000/svg">
    <g clip-path="url(#clip0_238_8931)">
        <path
            d="M13.3333 5H3.33333C3.24493 5 3.16014 5.03512 3.09763 5.09763C3.03512 5.16014 3 5.24493 3 5.33333V14.6667C3 15.0203 3.14048 15.3594 3.39052 15.6095C3.64057 15.8595 3.97971 16 4.33333 16H12.3333C12.687 16 13.0261 15.8595 13.2761 15.6095C13.5262 15.3594 13.6667 15.0203 13.6667 14.6667V5.33333C13.6667 5.24493 13.6315 5.16014 13.569 5.09763C13.5065 5.03512 13.4217 5 13.3333 5ZM7.16667 13.6667C7.16667 13.7993 7.11399 13.9265 7.02022 14.0202C6.92645 14.114 6.79927 14.1667 6.66667 14.1667C6.53406 14.1667 6.40688 14.114 6.31311 14.0202C6.21935 13.9265 6.16667 13.7993 6.16667 13.6667V7.66667C6.16667 7.53406 6.21935 7.40688 6.31311 7.31311C6.40688 7.21935 6.53406 7.16667 6.66667 7.16667C6.79927 7.16667 6.92645 7.21935 7.02022 7.31311C7.11399 7.40688 7.16667 7.53406 7.16667 7.66667V13.6667ZM10.5 13.6667C10.5 13.7993 10.4473 13.9265 10.3536 14.0202C10.2598 14.114 10.1326 14.1667 10 14.1667C9.86739 14.1667 9.74022 14.114 9.64645 14.0202C9.55268 13.9265 9.5 13.7993 9.5 13.6667V7.66667C9.5 7.53406 9.55268 7.40688 9.64645 7.31311C9.74022 7.21935 9.86739 7.16667 10 7.16667C10.1326 7.16667 10.2598 7.21935 10.3536 7.31311C10.4473 7.40688 10.5 7.53406 10.5 7.66667V13.6667Z"
            fill="#DE2624" />
        <path
            d="M15 2.66667H11.8333C11.7891 2.66667 11.7467 2.64911 11.7155 2.61785C11.6842 2.5866 11.6667 2.5442 11.6667 2.5V1.66667C11.6667 1.22464 11.4911 0.800716 11.1785 0.488155C10.866 0.175595 10.442 0 10 0L6.66667 0C6.22464 0 5.80072 0.175595 5.48816 0.488155C5.17559 0.800716 5 1.22464 5 1.66667V2.5C5 2.5442 4.98244 2.5866 4.95118 2.61785C4.91993 2.64911 4.87754 2.66667 4.83333 2.66667H1.66667C1.48986 2.66667 1.32029 2.7369 1.19526 2.86193C1.07024 2.98695 1 3.15652 1 3.33333C1 3.51014 1.07024 3.67971 1.19526 3.80474C1.32029 3.92976 1.48986 4 1.66667 4H15C15.1768 4 15.3464 3.92976 15.4714 3.80474C15.5964 3.67971 15.6667 3.51014 15.6667 3.33333C15.6667 3.15652 15.5964 2.98695 15.4714 2.86193C15.3464 2.7369 15.1768 2.66667 15 2.66667ZM6.33333 2.5V1.66667C6.33333 1.57826 6.36845 1.49348 6.43096 1.43096C6.49348 1.36845 6.57826 1.33333 6.66667 1.33333H10C10.0884 1.33333 10.1732 1.36845 10.2357 1.43096C10.2982 1.49348 10.3333 1.57826 10.3333 1.66667V2.5C10.3333 2.5442 10.3158 2.5866 10.2845 2.61785C10.2533 2.64911 10.2109 2.66667 10.1667 2.66667H6.5C6.4558 2.66667 6.4134 2.64911 6.38215 2.61785C6.35089 2.5866 6.33333 2.5442 6.33333 2.5Z"
            fill="#DE2624" />
    </g>
    <defs>
        <clipPath id="clip0_238_8931">
            <rect width="16" height="16" fill="white" />
        </clipPath>
    </defs>
</svg>