<svg width="16" height="16" viewBox="0 0 16 16" fill="none" xmlns="http://www.w3.org/2000/svg">
<path d="M13.635 2.38974C13.5199 2.27434 13.3832 2.18279 13.2327 2.12032C13.0821 2.05785 12.9208 2.0257 12.7578 2.0257C12.5949 2.0257 12.4335 2.05785 12.283 2.12032C12.1325 2.18279 11.9958 2.27434 11.8807 2.38974L8.1874 6.08523C8.1409 6.13161 8.07792 6.15765 8.01226 6.15765C7.9466 6.15765 7.88362 6.13161 7.83712 6.08523L4.14286 2.38974C4.02902 2.26891 3.8921 2.17217 3.74021 2.10525C3.58833 2.03832 3.42456 2.00258 3.25862 2.00013C3.09268 1.99769 2.92793 2.02859 2.77414 2.09101C2.62035 2.15342 2.48064 2.24609 2.36329 2.36351C2.24594 2.48093 2.15333 2.62072 2.09095 2.77461C2.02857 2.92849 1.99769 3.09333 2.00013 3.25938C2.00258 3.42542 2.0383 3.58928 2.10518 3.74126C2.17206 3.89324 2.26875 4.03024 2.3895 4.14415L6.08277 7.83964C6.10587 7.8627 6.1242 7.89009 6.13671 7.92024C6.14921 7.9504 6.15565 7.98273 6.15565 8.01538C6.15565 8.04803 6.14921 8.08036 6.13671 8.11051C6.1242 8.14067 6.10587 8.16806 6.08277 8.19112L2.3895 11.8886C2.15707 12.1215 2.02651 12.4372 2.02651 12.7663C2.02651 13.0954 2.15707 13.4111 2.3895 13.644C2.62449 13.8723 2.93914 14 3.26668 14C3.59422 14 3.90886 13.8723 4.14386 13.644L7.83712 9.94851C7.86008 9.92542 7.88737 9.9071 7.91743 9.8946C7.94749 9.8821 7.97971 9.87567 8.01226 9.87567C8.04481 9.87567 8.07704 9.8821 8.10709 9.8946C8.13715 9.9071 8.16444 9.92542 8.1874 9.94851L11.8827 13.642C12.118 13.8696 12.4325 13.9968 12.7598 13.9968C13.0871 13.9968 13.4017 13.8696 13.637 13.642C13.8694 13.4091 14 13.0934 14 12.7643C14 12.4352 13.8694 12.1195 13.637 11.8866L9.94374 8.19112C9.92063 8.16806 9.9023 8.14067 9.8898 8.11051C9.87729 8.08036 9.87086 8.04803 9.87086 8.01538C9.87086 7.98273 9.87729 7.9504 9.8898 7.92024C9.9023 7.89009 9.92063 7.8627 9.94374 7.83964L13.635 4.14415C13.7502 4.02899 13.8416 3.89224 13.9039 3.74172C13.9663 3.59121 13.9983 3.42987 13.9983 3.26694C13.9983 3.10401 13.9663 2.94268 13.9039 2.79217C13.8416 2.64165 13.7502 2.5049 13.635 2.38974Z" fill="#252E42"/>
</svg>
