<svg width="24" height="24" viewBox="0 0 24 24" fill="none" xmlns="http://www.w3.org/2000/svg">
<path d="M20.4525 3.58461C20.2799 3.41151 20.0748 3.27418 19.849 3.18048C19.6232 3.08678 19.3812 3.03855 19.1368 3.03855C18.8923 3.03855 18.6503 3.08678 18.4245 3.18048C18.1988 3.27418 17.9937 3.41151 17.821 3.58461L12.2811 9.12784C12.2113 9.19741 12.1169 9.23648 12.0184 9.23648C11.9199 9.23648 11.8254 9.19741 11.7557 9.12784L6.2143 3.58461C6.04353 3.40336 5.83815 3.25825 5.61032 3.15787C5.38249 3.05748 5.13684 3.00387 4.88793 3.0002C4.63902 2.99653 4.3919 3.04288 4.16121 3.13651C3.93053 3.23013 3.72096 3.36913 3.54494 3.54526C3.36891 3.7214 3.23 3.93108 3.13643 4.16191C3.04286 4.39273 2.99654 4.64 3.0002 4.88906C3.00387 5.13813 3.05745 5.38392 3.15777 5.61189C3.2581 5.83985 3.40312 6.04536 3.58426 6.21623L9.12416 11.7595C9.15881 11.794 9.1863 11.8351 9.20506 11.8804C9.22382 11.9256 9.23348 11.9741 9.23348 12.0231C9.23348 12.072 9.22382 12.1205 9.20506 12.1658C9.1863 12.211 9.15881 12.2521 9.12416 12.2867L3.58426 17.8329C3.2356 18.1822 3.03976 18.6557 3.03976 19.1494C3.03976 19.6431 3.2356 20.1167 3.58426 20.466C3.93674 20.8084 4.40871 21 4.90002 21C5.39133 21 5.8633 20.8084 6.21578 20.466L11.7557 14.9228C11.7901 14.8881 11.8311 14.8607 11.8761 14.8419C11.9212 14.8232 11.9696 14.8135 12.0184 14.8135C12.0672 14.8135 12.1156 14.8232 12.1606 14.8419C12.2057 14.8607 12.2467 14.8881 12.2811 14.9228L17.824 20.463C18.177 20.8044 18.6488 20.9953 19.1397 20.9953C19.6307 20.9953 20.1025 20.8044 20.4555 20.463C20.8042 20.1137 21 19.6402 21 19.1465C21 18.6528 20.8042 18.1792 20.4555 17.8299L14.9156 12.2867C14.881 12.2521 14.8535 12.211 14.8347 12.1658C14.8159 12.1205 14.8063 12.072 14.8063 12.0231C14.8063 11.9741 14.8159 11.9256 14.8347 11.8804C14.8535 11.8351 14.881 11.794 14.9156 11.7595L20.4525 6.21623C20.6253 6.04348 20.7624 5.83835 20.8559 5.61258C20.9494 5.38681 20.9975 5.14481 20.9975 4.90042C20.9975 4.65602 20.9494 4.41402 20.8559 4.18825C20.7624 3.96248 20.6253 3.75736 20.4525 3.58461Z" fill="white"/>
</svg>
