<svg width="16" height="16" viewBox="0 0 16 16" fill="none" xmlns="http://www.w3.org/2000/svg">
<g clip-path="url(#clip0_497_706)">
<path d="M0 12.8339C0 13.3643 0.210714 13.873 0.585786 14.2481C0.960859 14.6232 1.46957 14.8339 2 14.8339H14C14.5304 14.8339 15.0391 14.6232 15.4142 14.2481C15.7893 13.873 16 13.3643 16 12.8339V3.16724C16 2.6368 15.7893 2.1281 15.4142 1.75302C15.0391 1.37795 14.5304 1.16724 14 1.16724H2C1.46957 1.16724 0.960859 1.37795 0.585786 1.75302C0.210714 2.1281 0 2.6368 0 3.16724L0 12.8339ZM9.66667 2.8339C9.66355 2.95231 9.62804 3.0676 9.564 3.16724C9.50838 3.26814 9.42672 3.35227 9.32752 3.41086C9.22832 3.46946 9.11521 3.50037 9 3.50037C8.88479 3.50037 8.77168 3.46946 8.67248 3.41086C8.57328 3.35227 8.49162 3.26814 8.436 3.16724C8.37196 3.0676 8.33645 2.95231 8.33333 2.8339C8.33635 2.71548 8.37186 2.60017 8.436 2.50057C8.49162 2.39967 8.57328 2.31554 8.67248 2.25694C8.77168 2.19835 8.88479 2.16744 9 2.16744C9.11521 2.16744 9.22832 2.19835 9.32752 2.25694C9.42672 2.31554 9.50838 2.39967 9.564 2.50057C9.62814 2.60017 9.66365 2.71548 9.66667 2.8339ZM12 2.8339C11.9969 2.95231 11.9614 3.0676 11.8973 3.16724C11.8417 3.26814 11.7601 3.35227 11.6609 3.41086C11.5617 3.46946 11.4485 3.50037 11.3333 3.50037C11.2181 3.50037 11.105 3.46946 11.0058 3.41086C10.9066 3.35227 10.8249 3.26814 10.7693 3.16724C10.7053 3.0676 10.6698 2.95231 10.6667 2.8339C10.6697 2.71548 10.7052 2.60017 10.7693 2.50057C10.8249 2.39967 10.9066 2.31554 11.0058 2.25694C11.105 2.19835 11.2181 2.16744 11.3333 2.16744C11.4485 2.16744 11.5617 2.19835 11.6609 2.25694C11.7601 2.31554 11.8417 2.39967 11.8973 2.50057C11.9615 2.60017 11.997 2.71548 12 2.8339ZM14.3333 2.8339C14.3302 2.95231 14.2947 3.0676 14.2307 3.16724C14.1751 3.26814 14.0934 3.35227 13.9942 3.41086C13.895 3.46946 13.7819 3.50037 13.6667 3.50037C13.5515 3.50037 13.4383 3.46946 13.3391 3.41086C13.2399 3.35227 13.1583 3.26814 13.1027 3.16724C13.0386 3.0676 13.0031 2.95231 13 2.8339C13.003 2.71548 13.0385 2.60017 13.1027 2.50057C13.1592 2.40041 13.241 2.31688 13.34 2.25837C13.439 2.19986 13.5517 2.16843 13.6667 2.16724C13.7948 2.16782 13.92 2.20529 14.0273 2.27516C14.1347 2.34503 14.2196 2.44435 14.272 2.56124C14.3117 2.64668 14.3327 2.73967 14.3333 2.8339ZM1.33333 4.66657C1.33333 4.62237 1.35089 4.57997 1.38215 4.54872C1.41341 4.51746 1.4558 4.4999 1.5 4.4999H14.5C14.5442 4.4999 14.5866 4.51746 14.6179 4.54872C14.6491 4.57997 14.6667 4.62237 14.6667 4.66657V12.8332C14.6667 13.01 14.5964 13.1796 14.4714 13.3046C14.3464 13.4297 14.1768 13.4999 14 13.4999H2C1.82319 13.4999 1.65362 13.4297 1.5286 13.3046C1.40357 13.1796 1.33333 13.01 1.33333 12.8332V4.66657Z" fill="white"/>
<path d="M4.52869 10.9719C4.65371 11.0969 4.82324 11.1671 5.00002 11.1671C5.1768 11.1671 5.34634 11.0969 5.47135 10.9719L7.13802 9.30526C7.263 9.18025 7.33321 9.01071 7.33321 8.83393C7.33321 8.65715 7.263 8.48762 7.13802 8.3626L5.47135 6.69593C5.34562 6.57449 5.17722 6.5073 5.00242 6.50881C4.82762 6.51033 4.66041 6.58045 4.53681 6.70405C4.4132 6.82766 4.34309 6.99487 4.34157 7.16966C4.34005 7.34446 4.40725 7.51286 4.52869 7.6386L5.60602 8.71593C5.62154 8.73141 5.63386 8.7498 5.64226 8.77005C5.65066 8.7903 5.65498 8.81201 5.65498 8.83393C5.65498 8.85585 5.65066 8.87756 5.64226 8.89781C5.63386 8.91806 5.62154 8.93645 5.60602 8.95193L4.52869 10.0293C4.40371 10.1543 4.3335 10.3238 4.3335 10.5006C4.3335 10.6774 4.40371 10.8469 4.52869 10.9719Z" fill="white"/>
<path d="M8.66667 11.1673H11.3333C11.5101 11.1673 11.6797 11.0971 11.8047 10.9721C11.9298 10.847 12 10.6775 12 10.5007C12 10.3238 11.9298 10.1543 11.8047 10.0292C11.6797 9.90422 11.5101 9.83398 11.3333 9.83398H8.66667C8.48986 9.83398 8.32029 9.90422 8.19526 10.0292C8.07024 10.1543 8 10.3238 8 10.5007C8 10.6775 8.07024 10.847 8.19526 10.9721C8.32029 11.0971 8.48986 11.1673 8.66667 11.1673Z" fill="white"/>
</g>
<defs>
<clipPath id="clip0_497_706">
<rect width="16" height="16" fill="white"/>
</clipPath>
</defs>
</svg>
