<svg width="363" height="429" viewBox="0 0 363 429" fill="none" xmlns="http://www.w3.org/2000/svg">
<path d="M282.85 9.76667C282.85 9.76667 299.387 3.79601 328.789 0C328.789 0 459.022 323.162 211.294 422.077C211.294 422.077 359.942 302.291 282.85 9.76667ZM0.043781 189.221C-0.365756 162.984 2.23269 140.8 2.23269 140.8C30.5472 117.046 62.943 98.4516 62.943 98.4516L62.5335 102.441C58.5229 142.369 54.1592 202.462 65.6404 262.014C78.4631 328.541 105.62 381.042 146.347 418.075L152.349 423.518L144.229 421.279C142.577 420.829 103.247 409.673 65.485 369.486C43.3418 345.938 26.4519 317.269 15.2531 284.289C5.7067 256.172 0.552178 223.257 0.0296651 189.221M115.816 158.493C115.547 125.963 118.499 69.409 118.499 69.409C118.499 69.409 160.935 43.9178 238.733 22.5573C243.973 60.9548 247.644 120.263 246.557 177.125C245.427 279.154 233.536 356.734 212.17 401.437C199.39 426.285 181.949 428.91 181.229 429C180.523 428.91 163.082 426.298 150.33 401.489C134.485 368.354 115.674 299.344 115.816 158.493Z" fill="white" fill-opacity="0.05"/>
</svg>
