<svg width="12" height="12" viewBox="0 0 12 12" fill="none" xmlns="http://www.w3.org/2000/svg">
<g id="external-link" clip-path="url(#clip0_497_5064)">
<path id="Vector" d="M11.625 3.48197e-07H7.62503C7.55056 -0.000101803 7.47778 0.0222743 7.41623 0.0642022C7.35468 0.10613 7.30721 0.165658 7.28003 0.235C7.25162 0.302816 7.24405 0.37756 7.2583 0.449695C7.27255 0.521829 7.30797 0.588083 7.36003 0.64L9.00003 2.255L4.27503 6.905C4.18191 6.99868 4.12964 7.12541 4.12964 7.2575C4.12964 7.38959 4.18191 7.51632 4.27503 7.61C4.32134 7.65724 4.37656 7.69483 4.4375 7.72058C4.49844 7.74633 4.56388 7.75973 4.63003 7.76C4.7605 7.76078 4.8861 7.71054 4.98003 7.62L9.72003 2.955L11.365 4.575C11.3997 4.61006 11.4409 4.63784 11.4864 4.65673C11.5319 4.67562 11.5808 4.68523 11.63 4.685C11.6799 4.68516 11.7293 4.67494 11.775 4.655C11.8425 4.62627 11.8999 4.57813 11.94 4.5167C11.98 4.45528 12.0009 4.38333 12 4.31V0.375C11.9987 0.275947 11.9588 0.181315 11.8888 0.111267C11.8187 0.0412199 11.7241 0.00129533 11.625 3.48197e-07Z" fill="#6D7380"/>
<path id="Vector_2" d="M9.25 5.31C9.11739 5.31 8.99021 5.36268 8.89645 5.45645C8.80268 5.55021 8.75 5.67739 8.75 5.81V11H1V3.25H6.185C6.31761 3.25 6.44479 3.19732 6.53855 3.10355C6.63232 3.00979 6.685 2.88261 6.685 2.75C6.685 2.61739 6.63232 2.49021 6.53855 2.39645C6.44479 2.30268 6.31761 2.25 6.185 2.25H0.935C0.687023 2.25 0.449202 2.34851 0.273855 2.52386C0.0985086 2.6992 0 2.93702 0 3.185L0 11.06C-3.51452e-06 11.3084 0.0983453 11.5468 0.27355 11.7229C0.448754 11.8991 0.686564 11.9987 0.935 12H8.81C9.0593 12 9.2984 11.901 9.47468 11.7247C9.65096 11.5484 9.75 11.3093 9.75 11.06V5.81C9.75 5.67739 9.69732 5.55021 9.60355 5.45645C9.50979 5.36268 9.38261 5.31 9.25 5.31Z" fill="#6D7380"/>
</g>
<defs>
<clipPath id="clip0_497_5064">
<rect width="12" height="12" fill="white"/>
</clipPath>
</defs>
</svg>
