<svg width="16" height="16" viewBox="0 0 16 16" fill="none" xmlns="http://www.w3.org/2000/svg">
<g id="GitHub" clip-path="url(#clip0_497_5068)">
<path id="vector" fill-rule="evenodd" clip-rule="evenodd" d="M8 0C3.58011 0 0 3.58011 0 8C0 11.5359 2.29343 14.5316 5.47084 15.5924C5.86863 15.6661 6.01596 15.4205 6.01596 15.2044C6.01596 15.0129 6.01105 14.512 6.00614 13.8441C3.78146 14.3254 3.31001 12.7735 3.31001 12.7735C2.94659 11.8502 2.42112 11.5998 2.42112 11.5998C1.69429 11.1037 2.47514 11.1136 2.47514 11.1136C3.27563 11.1725 3.70288 11.9386 3.70288 11.9386C4.41498 13.1614 5.57397 12.8079 6.03069 12.6016C6.10436 12.0859 6.31062 11.7324 6.53653 11.531C4.76366 11.3346 2.89748 10.647 2.89748 7.58257C2.89748 6.70841 3.20688 5.99632 3.72253 5.43646C3.63904 5.2302 3.36403 4.41989 3.79619 3.31983C3.79619 3.31983 4.469 3.10374 5.99632 4.13996C6.63474 3.96317 7.31737 3.87477 8 3.86986C8.67772 3.87477 9.36525 3.96317 10.0037 4.13996C11.531 3.10374 12.2038 3.31983 12.2038 3.31983C12.6409 4.41989 12.3659 5.23511 12.2824 5.43646C12.7931 5.99632 13.1025 6.70841 13.1025 7.58257C13.1025 10.6568 11.2314 11.3296 9.44874 11.531C9.73358 11.7765 9.99386 12.2676 9.99386 13.0141C9.99386 14.0847 9.98404 14.9441 9.98404 15.2093C9.98404 15.4254 10.1265 15.671 10.5341 15.5924C13.7115 14.5316 16 11.5359 16 8.00491C16 3.58011 12.4199 0 8 0Z" fill="#375BD2"/>
</g>
<defs>
<clipPath id="clip0_497_5068">
<rect width="16" height="16" fill="white"/>
</clipPath>
</defs>
</svg>
