<svg width="16" height="16" viewBox="0 0 16 16" fill="none" xmlns="http://www.w3.org/2000/svg">
<g clip-path="url(#clip0_497_720)">
<path d="M8.00005 0.916748C3.78805 0.916748 0.360718 3.74075 0.360718 7.21141C0.37343 8.04522 0.568553 8.86613 0.932382 9.61647C1.29621 10.3668 1.81992 11.0284 2.46672 11.5547L0.944051 14.6001C0.913127 14.6619 0.902204 14.7319 0.912795 14.8002C0.923386 14.8685 0.954967 14.9319 1.00316 14.9815C1.05136 15.0311 1.11378 15.0644 1.18179 15.077C1.24979 15.0895 1.32001 15.0806 1.38272 15.0514L5.46672 13.1507C6.29031 13.3873 7.14316 13.5065 8.00005 13.5047C12.2121 13.5047 15.6394 10.6814 15.6394 7.21141C15.6394 3.74141 12.2121 0.916748 8.00005 0.916748ZM9.66672 10.7501H7.00005C6.86744 10.7501 6.74027 10.6974 6.6465 10.6036C6.55273 10.5099 6.50005 10.3827 6.50005 10.2501C6.50005 10.1175 6.55273 9.9903 6.6465 9.89653C6.74027 9.80276 6.86744 9.75008 7.00005 9.75008H7.83338V6.25008C7.83321 6.20593 7.81559 6.16364 7.78438 6.13242C7.75316 6.10121 7.71087 6.08359 7.66672 6.08341H7.00005C6.86744 6.08341 6.74027 6.03074 6.6465 5.93697C6.55273 5.8432 6.50005 5.71602 6.50005 5.58341C6.50005 5.45081 6.55273 5.32363 6.6465 5.22986C6.74027 5.13609 6.86744 5.08341 7.00005 5.08341H7.66672C7.97603 5.08377 8.27257 5.2068 8.49129 5.42551C8.71 5.64423 8.83303 5.94077 8.83338 6.25008V9.75008H9.66672C9.79933 9.75008 9.9265 9.80276 10.0203 9.89653C10.114 9.9903 10.1667 10.1175 10.1667 10.2501C10.1667 10.3827 10.114 10.5099 10.0203 10.6036C9.9265 10.6974 9.79933 10.7501 9.66672 10.7501ZM8.08338 2.91675C8.21524 2.91675 8.34413 2.95585 8.45376 3.0291C8.5634 3.10236 8.64885 3.20648 8.6993 3.32829C8.74976 3.45011 8.76297 3.58415 8.73724 3.71347C8.71152 3.8428 8.64802 3.96158 8.55479 4.05482C8.46155 4.14805 8.34277 4.21155 8.21344 4.23727C8.08412 4.263 7.95008 4.24979 7.82826 4.19933C7.70644 4.14888 7.60233 4.06343 7.52907 3.95379C7.45582 3.84416 7.41672 3.71527 7.41672 3.58341C7.41672 3.4066 7.48696 3.23703 7.61198 3.11201C7.737 2.98699 7.90657 2.91675 8.08338 2.91675Z" fill="white"/>
</g>
<defs>
<clipPath id="clip0_497_720">
<rect width="16" height="16" fill="white"/>
</clipPath>
</defs>
</svg>
