<svg width="155" height="48" viewBox="0 0 155 48" fill="none" xmlns="http://www.w3.org/2000/svg">
<g clip-path="url(#clip0_497_722)">
<path d="M118.397 5.36123L118.496 3.40411C130.736 4.89373 142.921 7.04976 155 9.87801C154.554 14.5066 154.107 19.1366 153.66 23.7652C152.231 23.6664 150.801 23.5779 149.371 23.498C147.467 26.2537 145.581 29.0253 143.713 31.8129C144.541 32.1526 145.368 32.4953 146.195 32.8408C145.792 37.4215 145.388 37.2894 144.985 41.87C137.628 40.302 130.233 38.9924 122.813 37.9427C122.963 35.3903 120.844 38.1155 119.618 38.9126C116.809 40.739 113.203 36.6999 108.861 36.276C102.7 35.6763 96.5268 39.9652 90.3497 39.7198C90.3612 39.0752 83.5542 39.8926 80.2593 39.8635C75.132 39.82 54.9311 35.897 50.4222 36.276C45.919 36.6549 38.1822 35.701 38.2551 37.1427C35.4229 37.4883 32.5936 37.873 29.7671 38.2941L25.7924 38.9126C18.3884 40.1118 11.013 41.5695 3.67765 43.2871C3.23776 38.7166 2.79644 38.8603 2.35511 34.2898C3.25061 33.8934 4.14897 33.5014 5.04733 33.1123L4.15611 23.5155C3.21205 23.5416 2.26799 23.5721 1.32393 23.6069C0.881181 19.0321 0.439858 14.4558 -0.00146484 9.87946C5.99281 8.4755 12.0128 7.23705 18.0528 6.16412C22.5546 5.36414 26.3722 5.95069 29.3558 7.83087C29.4058 7.86281 29.4543 7.8962 29.5043 7.92814C29.4329 6.73906 29.3629 5.54852 29.2915 4.35944C42.4612 2.47055 55.708 1.35987 68.9677 1.02594C68.9805 2.13978 68.9919 3.25506 69.0033 4.36891L69.0034 4.38557C72.0856 1.84625 75.9475 0.50617 80.2879 0.542466C83.19 0.565696 85.9165 1.10724 88.3788 2.13372C89.2871 2.51266 90.1455 2.94532 90.9539 3.42734C90.9667 2.68107 90.9782 1.93336 90.991 1.1871C97.0496 1.42811 103.104 1.83173 109.147 2.39796C112.794 2.73915 115.902 3.74965 118.397 5.36123Z" fill="#375BD2"/>
<path d="M18.4813 9.38591C21.4992 8.86614 23.92 9.16813 25.7253 10.2556C27.5306 11.3445 28.5032 13.0867 28.6532 15.462C28.736 16.7687 28.4518 17.9534 27.8034 19.0191C27.155 20.0848 26.1681 21.0169 24.8441 21.8241C26.4209 22.0332 27.582 22.6212 28.3247 23.5736C29.0688 24.526 29.4873 25.7819 29.5858 27.3383C29.6129 27.7782 29.6415 28.2167 29.6686 28.6566C29.7044 29.2272 29.8457 29.6541 30.09 29.9357C30.3356 30.2188 30.7198 30.3524 31.2454 30.3393C31.4611 30.3393 31.6753 30.3393 31.891 30.3393C31.9538 31.3847 32.0167 32.43 32.0795 33.4768C31.1883 33.5988 30.2971 33.7237 29.4059 33.8529C27.7191 34.0968 26.5037 33.8238 25.7567 33.0166C25.0098 32.2094 24.5827 31.0842 24.4813 29.6366C24.447 29.1444 24.4128 28.6523 24.3785 28.1601C24.2899 26.9028 23.8857 25.9678 23.1602 25.3594C22.4347 24.7511 21.4549 24.5304 20.2238 24.7046C18.7984 24.9485 17.3745 25.2012 15.9505 25.4625C16.1347 27.7361 16.3176 30.0098 16.5018 32.2849C17.4373 32.2936 18.3714 32.3052 19.3068 32.3211C19.3868 33.3578 19.4668 34.3959 19.5468 35.4325C16.0019 36.0539 12.4642 36.7334 8.93505 37.4695C8.84078 36.4358 8.74652 35.4006 8.65083 34.3668C9.5449 33.9995 10.4418 33.6351 11.3388 33.2765C10.796 27.0959 10.2533 20.9167 9.71057 14.7361C8.75937 14.7462 7.8096 14.7593 6.8584 14.7767C6.76271 13.7372 6.66845 12.6962 6.57275 11.6566C7.5111 11.4606 8.45087 11.269 9.38922 11.0802C12.4142 10.4748 15.4449 9.91004 18.4813 9.38736V9.38591ZM15.6277 21.464C16.8374 21.2419 18.0471 21.0256 19.2583 20.8165C20.7208 20.5639 21.7962 20.0746 22.4847 19.3385C23.1731 18.6024 23.4787 17.6543 23.3973 16.4914C23.3159 15.3284 22.8846 14.4573 22.1033 13.8824C21.3206 13.3074 20.2138 13.139 18.7855 13.3858C17.533 13.6022 16.2804 13.8257 15.0293 14.0551C15.2293 16.5248 15.4292 18.9944 15.6277 21.464Z" fill="white"/>
<path d="M46.7989 5.69226C46.8403 6.74051 46.8817 7.78876 46.9231 8.83701C45.9776 9.0998 45.0321 9.36694 44.0895 9.63844C44.2837 14.1625 44.478 18.6865 44.6736 23.212C44.7479 24.9267 45.2664 26.1637 46.2261 26.9288C47.1859 27.6939 48.467 28.0061 50.0766 27.874C51.7091 27.7404 52.9759 27.225 53.8814 26.3132C54.7869 25.4014 55.2168 24.0846 55.1668 22.3568C55.034 17.827 54.9026 13.2986 54.7698 8.76877C53.8172 8.65262 52.8645 8.53938 51.9119 8.43194C51.8776 7.38369 51.8434 6.33398 51.8091 5.28573C55.5096 5.01133 59.213 4.795 62.9193 4.63965C62.9393 5.68935 62.9578 6.73906 62.9778 7.78876C62.0266 8.00799 61.0754 8.23013 60.1257 8.45807C60.2271 12.9894 60.3285 17.5207 60.4284 22.052C60.4927 24.9746 59.5758 27.2729 57.6948 28.9701C55.8124 30.6703 53.3273 31.6256 50.2223 31.8782C47.1288 32.1309 44.6022 31.5849 42.6241 30.1999C40.646 28.8162 39.5763 26.6805 39.4306 23.7637C39.205 19.2426 38.9793 14.7215 38.7536 10.2003C37.801 10.1292 36.847 10.0609 35.8929 9.99706C35.8372 8.95026 35.7815 7.90346 35.7244 6.85811C36.6727 6.74341 37.6211 6.63162 38.5694 6.52563C40.3561 6.32382 42.1457 6.13653 43.9338 5.9623C44.8893 5.86938 45.8462 5.78082 46.8031 5.69516L46.7989 5.69226Z" fill="white"/>
<path d="M90.1542 27.7274C89.293 28.5303 88.049 29.2417 86.4237 29.8719C84.7983 30.5034 82.7517 30.7967 80.2809 30.7764C76.776 30.7473 73.9252 29.5989 71.6986 27.2803C69.472 24.9631 68.3223 21.9359 68.2766 18.1654C68.2723 17.8678 68.2694 17.5687 68.2652 17.271C68.218 13.3713 69.2864 10.1627 71.503 7.67707C73.7181 5.19292 76.6503 3.9385 80.2694 3.96753C82.3732 3.98496 84.2942 4.34357 86.0266 5.03611C87.7576 5.73011 89.1901 6.6564 90.3227 7.80919C90.2942 9.55725 90.2656 11.3038 90.237 13.0519C88.9245 13.0025 87.6105 12.9619 86.2966 12.9285C86.0609 11.7583 85.8238 10.5895 85.5853 9.42077C85.1011 9.00408 84.4584 8.66434 83.6586 8.40591C82.8588 8.14748 81.939 8.011 80.8978 8.00084C78.5598 7.97761 76.7389 8.82405 75.4506 10.514C74.1609 12.204 73.531 14.4152 73.5439 17.1346C73.5453 17.4453 73.5468 17.7545 73.5482 18.0652C73.5625 20.7134 74.1995 22.8201 75.4506 24.3925C76.7017 25.9663 78.4913 26.7518 80.8322 26.7736C81.8833 26.7837 82.7345 26.7082 83.3872 26.5398C84.04 26.3728 84.5527 26.1739 84.9255 25.9431C84.9397 24.4694 84.954 22.9958 84.9683 21.5236C83.7186 21.4002 82.4675 21.284 81.2163 21.1751C81.2221 19.9527 81.2278 18.7287 81.2335 17.5063C84.2628 17.5396 87.2906 17.6122 90.3185 17.7269C90.2627 21.0604 90.2071 24.3939 90.1514 27.7274H90.1542Z" fill="white"/>
<path d="M108.918 5.75633C112.07 6.0438 114.5 6.90331 116.199 8.28984C117.9 9.67783 118.68 11.5653 118.553 13.9304C118.489 15.1325 118.107 16.1663 117.413 17.0359C116.718 17.9056 115.745 18.5081 114.493 18.8508C116.055 19.356 117.2 20.2097 117.929 21.3973C118.657 22.5864 118.98 23.9004 118.901 25.3392C118.766 27.8248 117.842 29.6033 116.139 30.6922C114.437 31.7826 112.095 32.1644 109.097 31.8799C104.855 31.4792 100.606 31.1583 96.3555 30.9187C96.3812 29.8748 96.4069 28.8324 96.434 27.7885C97.3624 27.6622 98.2921 27.5388 99.2219 27.4197C99.4004 21.1912 99.5776 14.9627 99.7561 8.73557C98.8135 8.49601 97.8708 8.25936 96.9268 8.02706C96.9525 6.97735 96.9796 5.9291 97.0053 4.87939C97.9579 4.93311 98.9091 4.99119 99.8603 5.05217C102.881 5.24672 105.9 5.48192 108.917 5.75633H108.918ZM104.852 16.3434C106.122 16.445 107.393 16.5539 108.661 16.6701C110.075 16.7993 111.175 16.6221 111.963 16.1271C112.75 15.6334 113.171 14.8407 113.221 13.7445C113.277 12.5424 112.933 11.6146 112.185 10.9656C111.436 10.3167 110.294 9.91594 108.757 9.77511C107.537 9.66477 106.317 9.56023 105.096 9.4615C105.015 11.7555 104.933 14.048 104.852 16.3419V16.3434ZM104.723 19.9527C104.635 22.4543 104.546 24.9559 104.456 27.4589C106.06 27.5881 107.663 27.7275 109.265 27.88C110.646 28.0106 111.713 27.8175 112.469 27.292C113.223 26.7664 113.63 25.917 113.686 24.7381C113.746 23.4648 113.481 22.4587 112.887 21.7197C112.295 20.9821 111.323 20.5436 109.975 20.4144C108.224 20.2475 106.473 20.0921 104.721 19.9527H104.723Z" fill="white"/>
<path d="M134.135 12.1518C133.407 12.1329 132.677 12.1155 131.949 12.1024C133.12 15.1572 134.277 18.2177 135.415 21.2826C135.451 21.2884 135.486 21.2957 135.522 21.3015C137.09 18.7012 138.673 16.1125 140.269 13.534C139.564 13.3017 138.858 13.0708 138.151 12.8429C138.233 11.8004 138.314 10.758 138.397 9.71408C141.746 10.3108 145.09 10.9569 148.426 11.6538C148.33 12.6933 148.236 13.7343 148.14 14.7739C147.382 14.7361 146.624 14.7013 145.865 14.6679C143.084 18.6083 140.341 22.5835 137.636 26.5907C137.491 28.4098 137.349 30.2276 137.204 32.0468C138.111 32.3909 139.017 32.7379 139.922 33.0878C139.837 34.1244 139.751 35.1596 139.665 36.1962C136.126 35.5284 132.578 34.92 129.025 34.3669C129.096 33.3288 129.168 32.2893 129.238 31.2512C130.173 31.2163 131.109 31.1858 132.044 31.1597C132.183 29.2505 132.32 27.3398 132.458 25.4306C130.453 20.7033 128.407 15.9934 126.316 11.3039C125.576 11.0788 124.835 10.8553 124.093 10.6346C124.156 9.58922 124.219 8.54387 124.282 7.49707C127.647 7.95441 131.009 8.46257 134.362 9.02009C134.287 10.064 134.209 11.1079 134.134 12.1503L134.135 12.1518Z" fill="white"/>
<path d="M111.462 47.9203C88.6173 46.2681 65.6857 46.2841 42.8426 47.9711C37.0754 48.3965 32.0323 44.0627 31.4881 38.2102C31.3953 37.2186 31.3039 36.2284 31.2111 35.2368C62.0022 32.2778 92.9977 32.2778 123.789 35.2368C123.719 35.9917 123.649 36.7482 123.577 37.5031C122.996 43.7462 117.615 48.3646 111.46 47.9189L111.462 47.9203Z" fill="#021642"/>
<path d="M41.3972 43.5593L41.4584 44.5775L38.1832 44.8168L38.122 43.7986L38.8698 43.5843L38.5769 38.7117L37.81 38.6081L37.7485 37.585L41.2995 37.3255C41.888 37.2825 42.399 37.3466 42.8325 37.5178C43.2726 37.6885 43.6189 37.9459 43.8713 38.29C44.1268 38.6305 44.2689 39.0391 44.2976 39.516C44.3263 39.9928 44.236 40.4184 44.0268 40.7929C43.8142 41.1676 43.4999 41.47 43.0838 41.6999C42.6678 41.9299 42.1688 42.0661 41.587 42.1086L40.5538 42.1841L40.6303 43.4557L41.3972 43.5593ZM41.3796 38.6566L40.3464 38.7321L40.4735 40.848L41.5067 40.7725C41.8645 40.7464 42.1296 40.6306 42.3019 40.4251C42.4774 40.216 42.556 39.9592 42.5377 39.6545C42.5188 39.34 42.4097 39.0885 42.2103 38.9002C42.0142 38.7117 41.7373 38.6305 41.3796 38.6566Z" fill="white"/>
<path d="M50.7526 40.9492L51.6034 42.7541L52.3045 42.8882L52.3525 43.9021L50.2237 44.0247L49.1913 41.4677L47.9907 41.5219L48.0592 42.9683L48.8249 43.0836L48.8732 44.1025L45.5947 44.2914L45.5464 43.2725L46.297 43.0698L46.0659 38.194L45.3002 38.0786L45.2515 37.0498L48.8463 36.8427C49.4287 36.8091 49.9351 36.8713 50.3655 37.0293C50.7992 37.187 51.1395 37.4282 51.3865 37.7529C51.6333 38.0743 51.7676 38.4652 51.7895 38.9258C51.8096 39.3499 51.7128 39.7509 51.4991 40.1287C51.4059 40.2869 51.2972 40.436 51.1729 40.5761C51.0487 40.7161 50.9086 40.8405 50.7526 40.9492ZM47.8352 38.2416L47.9273 40.1849L49.0218 40.1219C49.3632 40.1022 49.6223 40.0092 49.799 39.8429C49.9756 39.6732 50.0568 39.4393 50.0426 39.1411C50.028 38.8329 49.9226 38.5915 49.7264 38.4167C49.53 38.2386 49.2578 38.1596 48.9097 38.1797L47.8352 38.2416Z" fill="white"/>
<path d="M58.8617 41.501L58.9362 43.6294L53.0123 43.8816L52.9766 42.8622L53.7297 42.6708L53.5588 37.7926L52.7945 37.6657L52.7587 36.6414L58.6022 36.3925L58.6754 38.481L57.3439 38.5378L57.2776 37.7936L55.328 37.8766L55.3801 39.3634L57.7165 39.2639L57.7634 40.6016L55.427 40.7011L55.4874 42.4266L57.5324 42.3395L57.5453 41.5571L58.8617 41.501Z" fill="white"/>
<path d="M63.4707 43.5032L60.0421 43.5964L60.0193 42.5766L60.7844 42.3716L60.6766 37.5464L59.9031 37.3783L59.8802 36.3535L63.3089 36.2604C63.9725 36.2423 64.5607 36.3774 65.0735 36.6654C65.5897 36.9533 65.9979 37.362 66.2982 37.8914C66.5984 38.4208 66.7563 39.0354 66.772 39.7352L66.7745 39.8496C66.7902 40.5493 66.6598 41.1701 66.3835 41.7118C66.1073 42.2569 65.7178 42.6873 65.2151 43.0029C64.7124 43.3185 64.131 43.4853 63.4707 43.5032ZM63.2481 37.591L62.4437 37.6129L62.5463 42.2043L63.3507 42.1825C63.7193 42.1725 64.0289 42.0711 64.2795 41.8785C64.5267 41.686 64.7103 41.4205 64.8302 41.0821C64.9533 40.7403 65.0099 40.3455 64.9999 39.8978L64.9972 39.7784C64.9873 39.334 64.9149 38.9444 64.7799 38.6096C64.6417 38.2782 64.4449 38.0231 64.1894 37.8442C63.9339 37.6653 63.6201 37.5809 63.2481 37.591Z" fill="white"/>
<path d="M71.1283 42.3431L71.1399 43.363L67.8612 43.4082L67.8496 42.3883L68.6072 42.2186L68.5518 37.3377L67.7907 37.189L67.7791 36.1641L71.0578 36.1189L71.0694 37.1438L70.3119 37.3135L70.3672 42.1943L71.1283 42.3431Z" fill="white"/>
<path d="M76.5354 43.4472C75.8414 43.4478 75.2194 43.309 74.6693 43.0308C74.1226 42.7526 73.6932 42.3499 73.381 41.8227C73.0689 41.2923 72.9125 40.6489 72.912 39.8926L72.9118 39.5592C72.9113 38.8659 73.0551 38.2488 73.3431 37.7079C73.6311 37.1736 74.0398 36.7553 74.5694 36.453C75.0989 36.1474 75.7291 35.9943 76.46 35.9937C76.9697 35.9933 77.4542 36.0609 77.9136 36.1965C78.3764 36.3288 78.8057 36.5574 79.2016 36.8821L79.2028 38.748L77.9204 38.7491L77.7436 37.6794C77.6866 37.643 77.6279 37.6082 77.5675 37.5751C77.5105 37.5386 77.4501 37.5072 77.3864 37.4807C77.1315 37.3648 76.8431 37.307 76.5213 37.3072C76.1491 37.3075 75.8239 37.3957 75.5458 37.5717C75.2676 37.7478 75.0515 38.0034 74.8975 38.3385C74.7469 38.6704 74.6717 39.0735 74.672 39.5478L74.6722 39.8911C74.6725 40.3323 74.7516 40.722 74.9094 41.0602C75.0672 41.3984 75.287 41.662 75.5688 41.8508C75.8539 42.0397 76.1825 42.1339 76.5547 42.1336C76.7525 42.1335 76.9536 42.1134 77.1581 42.0734C77.3626 42.0302 77.5604 41.9736 77.7515 41.9038L77.9268 40.8787L79.2143 40.8776L79.2155 42.7037C78.9239 42.903 78.5519 43.0774 78.0994 43.227C77.6468 43.3734 77.1255 43.4468 76.5354 43.4472Z" fill="white"/>
<path d="M85.2865 42.4093L85.2743 43.4292L81.9805 43.3811L81.9927 42.3612L82.759 42.2131L82.8156 37.5015L81.6841 37.485L81.6295 38.2654L80.2969 38.246L80.3225 36.1116L87.1263 36.2109L87.1007 38.3453L85.753 38.3256L85.7221 37.5439L84.5806 37.5272L84.5241 42.2389L85.2865 42.4093Z" fill="white"/>
<path d="M91.0951 42.5602L91.072 43.58L87.7942 43.4896L87.8174 42.4699L88.5801 42.3316L88.6908 37.4517L87.9353 37.2716L87.9585 36.2468L91.2363 36.3372L91.213 37.3619L90.4503 37.5002L90.3396 42.3801L91.0951 42.5602Z" fill="white"/>
<path d="M96.45 43.8883C95.9441 43.8676 95.4816 43.7574 95.0623 43.5576C94.6464 43.3546 94.2883 43.081 93.988 42.7367C93.6876 42.3924 93.4595 41.9947 93.3036 41.5434C93.1512 41.089 93.0838 40.5999 93.1014 40.0761L93.1053 39.9617C93.1228 39.4412 93.2228 38.9622 93.4053 38.5249C93.5911 38.0876 93.8454 37.7096 94.1681 37.3908C94.4874 37.0719 94.8613 36.8283 95.2896 36.6599C95.718 36.4915 96.1851 36.4177 96.6909 36.4384C97.1867 36.4588 97.6442 36.5704 98.0634 36.7735C98.4826 36.9766 98.8474 37.2505 99.1578 37.5952C99.4649 37.9398 99.6997 38.3378 99.8623 38.7893C100.025 39.2409 100.097 39.7269 100.08 40.2474L100.076 40.3617C100.058 40.8856 99.9532 41.3676 99.7606 41.8079C99.5681 42.2449 99.3071 42.6226 98.9777 42.9411C98.6483 43.2596 98.2677 43.503 97.836 43.6712C97.4044 43.8361 96.9424 43.9085 96.45 43.8883ZM96.4946 42.5655C96.8597 42.5805 97.1779 42.4956 97.4491 42.3108C97.9987 41.9283 98.2898 41.2547 98.3223 40.2899L98.3265 40.1656C98.3418 39.7114 98.2868 39.3025 98.1615 38.9388C98.0326 38.5849 97.8407 38.3048 97.586 38.0985C97.3313 37.8922 97.018 37.7815 96.6462 37.7662C96.2509 37.75 95.9277 37.8331 95.6767 38.0153C95.419 38.1973 95.224 38.4599 95.0916 38.8031C94.9593 39.1462 94.8852 39.5532 94.8694 40.024L94.8652 40.1483C94.8492 40.6224 94.8973 41.036 95.0095 41.3892C95.1183 41.7456 95.295 42.0267 95.5397 42.2326C95.7877 42.4386 96.106 42.5496 96.4946 42.5655Z" fill="white"/>
<path d="M104.003 43.1462L103.955 44.1651L100.676 43.9762L100.725 42.9573L101.485 42.8416L101.716 37.9658L100.971 37.7634L101.019 36.7395L103.565 36.8862L106.277 41.6874L106.307 41.6891L106.471 38.2397L105.52 38.0254L105.568 37.0016L108.847 37.1905L108.798 38.2143L108.032 38.3297L107.745 44.3835L106.008 44.2834L103.236 39.5784L103.206 39.5767L103.047 42.9316L104.003 43.1462Z" fill="white"/>
<path d="M112.067 44.8131C111.472 44.7693 110.947 44.6742 110.492 44.5277C110.038 44.3813 109.591 44.1356 109.152 43.7906L109.265 41.9132L110.624 42.0131L110.717 42.9877C110.816 43.1147 110.999 43.2296 111.265 43.3323C111.531 43.4317 111.825 43.4931 112.145 43.5167C112.366 43.5329 112.555 43.5186 112.712 43.4736C113.023 43.3867 113.188 43.1909 113.206 42.8862C113.215 42.7439 113.187 42.6138 113.124 42.4961C112.996 42.2738 112.67 42.0386 112.144 41.7905C111.541 41.5499 111.04 41.3102 110.641 41.0714C110.252 40.8366 109.968 40.5712 109.787 40.2753C109.61 39.9796 109.535 39.6231 109.56 39.2059C109.584 38.8052 109.721 38.4627 109.969 38.1784C110.218 37.8973 110.55 37.6856 110.965 37.5431C111.38 37.4006 111.849 37.3436 112.371 37.372C112.967 37.4025 113.49 37.5008 113.94 37.6669C114.39 37.8297 114.783 38.0564 115.118 38.3471L115.012 40.0905L113.708 39.9947L113.561 39.011C113.451 38.9464 113.292 38.8832 113.084 38.8213C112.876 38.7595 112.654 38.7198 112.416 38.7024C112.206 38.6869 112.024 38.7001 111.87 38.7421C111.706 38.7833 111.574 38.8534 111.474 38.9525C111.378 39.0518 111.324 39.1809 111.315 39.3399C111.307 39.4657 111.339 39.5827 111.409 39.691C111.486 39.8098 111.633 39.932 111.851 40.0577C112.068 40.1835 112.314 40.3096 112.589 40.4362C113.403 40.7389 114.013 41.088 114.419 41.4837C114.829 41.8763 115.015 42.3839 114.977 43.0064C114.951 43.4369 114.812 43.7908 114.56 44.0683C114.308 44.3525 113.968 44.5586 113.541 44.6869C113.113 44.8118 112.622 44.8539 112.067 44.8131Z" fill="white"/>
</g>
<defs>
<clipPath id="clip0_497_722">
<rect width="155" height="48" fill="white"/>
</clipPath>
</defs>
</svg>
