<svg width="16" height="16" viewBox="0 0 16 16" fill="none" xmlns="http://www.w3.org/2000/svg">
<g clip-path="url(#clip0_238_8982)">
<path d="M8 16C12.4183 16 16 12.4183 16 8C16 3.58172 12.4183 0 8 0C3.58172 0 0 3.58172 0 8C0 12.4183 3.58172 16 8 16Z" fill="white"/>
<path d="M10.648 6.28847C10.4561 6.17685 10.2067 6.17685 9.99563 6.28847L8.49894 7.14428L7.48197 7.70243L5.9853 8.55824C5.79341 8.66986 5.54397 8.66986 5.33289 8.55824L4.14322 7.88847C3.95135 7.77685 3.81703 7.57219 3.81703 7.34894V6.028C3.81703 5.80475 3.93216 5.6001 4.14322 5.48847L5.31371 4.8373C5.50558 4.72568 5.75503 4.72568 5.96611 4.8373L7.13658 5.48847C7.32847 5.6001 7.46278 5.80475 7.46278 6.028V6.88382L8.47975 6.30708V5.45125C8.47975 5.228 8.36463 5.02335 8.15356 4.91172L5.9853 3.68382C5.79341 3.57219 5.54397 3.57219 5.33289 3.68382L3.12625 4.91172C2.91517 5.02335 2.80005 5.228 2.80005 5.45125V7.92568C2.80005 8.14894 2.91517 8.35358 3.12625 8.46521L5.33289 9.69313C5.52478 9.80475 5.77422 9.80475 5.9853 9.69313L7.48197 8.85591L8.49894 8.27916L9.99563 7.44196C10.1875 7.33033 10.437 7.33033 10.648 7.44196L11.8185 8.09313C12.0104 8.20475 12.1447 8.40939 12.1447 8.63266V9.95358C12.1447 10.1768 12.0296 10.3815 11.8185 10.4931L10.648 11.1629C10.4561 11.2745 10.2067 11.2745 9.99563 11.1629L8.82514 10.5117C8.63327 10.4001 8.49894 10.1954 8.49894 9.97219V9.11638L7.48197 9.69313V10.5489C7.48197 10.7722 7.5971 10.9768 7.80817 11.0885L10.0148 12.3164C10.2067 12.428 10.4561 12.428 10.6672 12.3164L12.8738 11.0885C13.0657 10.9768 13.2 10.7722 13.2 10.5489V8.07452C13.2 7.85125 13.0849 7.64661 12.8738 7.53499L10.648 6.28847Z" fill="#8247E5"/>
</g>
<defs>
<clipPath id="clip0_238_8982">
<rect width="16" height="16" fill="white"/>
</clipPath>
</defs>
</svg>
