<svg width="24" height="24" viewBox="0 0 24 24" fill="none" xmlns="http://www.w3.org/2000/svg">
<g id="navigation-menu-1 1">
<path id="Vector" d="M19.5 3H4.5C3.67157 3 3 3.67157 3 4.5V5.5C3 6.32843 3.67157 7 4.5 7H19.5C20.3284 7 21 6.32843 21 5.5V4.5C21 3.67157 20.3284 3 19.5 3Z" fill="white"/>
<path id="Vector_2" d="M19.5 10H4.5C3.67157 10 3 10.6716 3 11.5V12.5C3 13.3284 3.67157 14 4.5 14H19.5C20.3284 14 21 13.3284 21 12.5V11.5C21 10.6716 20.3284 10 19.5 10Z" fill="white"/>
<path id="Vector_3" d="M19.5 17H4.5C3.67157 17 3 17.6716 3 18.5V19.5C3 20.3284 3.67157 21 4.5 21H19.5C20.3284 21 21 20.3284 21 19.5V18.5C21 17.6716 20.3284 17 19.5 17Z" fill="white"/>
</g>
</svg>
