
<svg width="16" height="16" viewBox="0 0 16 16" fill="none" xmlns="http://www.w3.org/2000/svg">
<path d="M8 16C12.4183 16 16 12.4183 16 8C16 3.58172 12.4183 0 8 0C3.58172 0 0 3.58172 0 8C0 12.4183 3.58172 16 8 16Z" fill="#FF0420"/>
<path d="M5.66567 10.1216C5.24943 10.1393 4.8387 10.0214 4.49531 9.78544C4.34697 9.67214 4.22846 9.5244 4.15004 9.35501C4.07161 9.18561 4.03563 8.99967 4.04522 8.81325C4.04704 8.70462 4.05708 8.59629 4.07525 8.48918C4.12727 8.20065 4.20128 7.85456 4.29728 7.45088C4.56937 6.35056 5.27153 5.80039 6.40377 5.80039C6.68756 5.79574 6.96933 5.84884 7.23197 5.95646C7.4651 6.04783 7.66569 6.20664 7.8081 6.41259C7.95171 6.62479 8.0251 6.87672 8.01793 7.13285C8.01588 7.23946 8.00584 7.34577 7.9879 7.45088C7.92784 7.80699 7.85584 8.15309 7.7719 8.48918C7.63201 9.03729 7.38996 9.44739 7.04574 9.71948C6.70187 9.98754 6.24185 10.1216 5.66567 10.1216ZM5.74974 9.25731C5.95761 9.26306 6.16041 9.19263 6.31997 9.05928C6.49631 8.89935 6.61628 8.68674 6.662 8.45311C6.75407 8.07716 6.82401 7.74907 6.87184 7.46885C6.88794 7.38376 6.89597 7.29735 6.89584 7.21075C6.89584 6.8466 6.70581 6.66457 6.32574 6.66466C6.11619 6.65963 5.91178 6.72989 5.74961 6.86269C5.57653 7.0243 5.45889 7.23644 5.41348 7.46885C5.34143 7.73692 5.26943 8.06501 5.19748 8.45311C5.18119 8.53614 5.17315 8.62057 5.17348 8.70518C5.17348 9.07327 5.36557 9.25731 5.74974 9.25731Z" fill="white"/>
<path d="M8.2944 10.0616C8.27534 10.0627 8.25627 10.0595 8.2386 10.0523C8.22094 10.045 8.20514 10.0339 8.19237 10.0197C8.17241 9.9874 8.16595 9.94858 8.1744 9.91159L9.0026 6.01048C9.00993 5.96743 9.03338 5.92879 9.06817 5.90241C9.10034 5.87587 9.14058 5.86107 9.18227 5.86045H10.7787C11.1546 5.842 11.5272 5.93828 11.8471 6.13651C11.9786 6.22266 12.0854 6.34158 12.1569 6.48156C12.2285 6.62154 12.2624 6.77776 12.2552 6.93481C12.2546 7.03986 12.2425 7.14452 12.2191 7.24694C12.1529 7.65131 11.9364 8.01575 11.613 8.26726C11.3129 8.48733 10.9008 8.59736 10.3766 8.59736H9.56654L9.29047 9.91172C9.28313 9.95477 9.25968 9.9934 9.2249 10.0198C9.19277 10.0463 9.15258 10.0611 9.11093 10.0618L8.2944 10.0616ZM10.419 7.76891C10.5763 7.77237 10.7303 7.72388 10.8572 7.63094C10.9877 7.53505 11.0777 7.39375 11.1092 7.23487C11.1204 7.17548 11.1264 7.11523 11.1272 7.05481C11.1306 7.00599 11.1232 6.95702 11.1056 6.91138C11.088 6.86573 11.0605 6.82452 11.0252 6.79068C10.925 6.71671 10.801 6.6825 10.6771 6.69467H9.95696L9.7289 7.76891H10.419Z" fill="white"/>
</svg>
