<svg width="16" height="16" viewBox="0 0 16 16" fill="none" xmlns="http://www.w3.org/2000/svg">
<g id="Polygon No Border" clip-path="url(#clip0_497_5060)">
<path id="Vector" d="M12.0738 5.40655C11.7786 5.23742 11.3948 5.23742 11.0701 5.40655L8.76752 6.70323L7.20296 7.5489L4.90038 8.84559C4.60517 9.01472 4.22142 9.01472 3.89668 8.84559L2.06642 7.83079C1.77123 7.66166 1.56459 7.35158 1.56459 7.01332V5.0119C1.56459 4.67364 1.74171 4.36356 2.06642 4.19443L3.86716 3.2078C4.16236 3.03867 4.54613 3.03867 4.87087 3.2078L6.67159 4.19443C6.9668 4.36356 7.17344 4.67364 7.17344 5.0119V6.30858L8.73801 5.43474V4.13803C8.73801 3.79978 8.56089 3.48969 8.23618 3.32056L4.90038 1.4601C4.60517 1.29097 4.22142 1.29097 3.89668 1.4601L0.501851 3.32056C0.177115 3.48969 0 3.79978 0 4.13803V7.88716C0 8.22544 0.177115 8.5355 0.501851 8.70463L3.89668 10.5651C4.1919 10.7342 4.57565 10.7342 4.90038 10.5651L7.20296 9.2966L8.76752 8.42274L11.0701 7.15425C11.3653 6.98512 11.7491 6.98512 12.0738 7.15425L13.8745 8.14087C14.1697 8.31 14.3764 8.62007 14.3764 8.95835V10.9597C14.3764 11.298 14.1993 11.6081 13.8745 11.7772L12.0738 12.792C11.7786 12.9612 11.3948 12.9612 11.0701 12.792L9.26938 11.8054C8.97418 11.6363 8.76752 11.3262 8.76752 10.9879V9.69125L7.20296 10.5651V11.8618C7.20296 12.2001 7.38007 12.5101 7.70481 12.6793L11.0996 14.5397C11.3948 14.7089 11.7786 14.7089 12.1033 14.5397L15.4982 12.6793C15.7934 12.5101 16 12.2001 16 11.8618V8.11268C16 7.7744 15.8229 7.46434 15.4982 7.29521L12.0738 5.40655Z" fill="#375BD2"/>
</g>
<defs>
<clipPath id="clip0_497_5060">
<rect width="16" height="16" fill="white"/>
</clipPath>
</defs>
</svg>
