<svg width="150" height="204" viewBox="0 0 150 204" fill="none" xmlns="http://www.w3.org/2000/svg">
<g clip-path="url(#clip0_487_2671)">
<path d="M149.904 88.9824C149.056 84.9047 148.538 81.1125 148.631 78.2668C148.724 75.4211 147.735 69.021 146.839 66.1294C145.943 63.2379 144.528 58.687 143.255 56.8836C141.981 55.0802 139.387 51.1006 139.057 49.5828C138.727 48.0651 134.152 42.8033 133.303 41.9964C132.455 41.1896 131.227 39.1987 129.765 37.4455C128.303 35.6922 121.087 31.235 118.915 30.6659C116.746 30.0967 113.255 29.7653 111.038 28.9127C108.82 28.06 100.897 24.8829 100.331 23.1754C99.7649 21.468 99.5761 19.8085 100.238 18.8142C100.9 17.8198 101.394 15.3535 100.687 15.0918C99.9797 14.8302 99.8387 15.2096 99.7432 13.9056C99.6499 12.6016 100.168 5.20486 98.7995 4.11455C97.4305 3.02423 90.0975 -1.36101 84.3657 0.4162C78.6339 2.19341 76.6531 6.6746 76.23 7.59919C75.8048 8.52378 75.5228 14.4267 75.5922 15.4931C75.6638 16.5594 74.4597 15.4931 73.824 15.4931C73.1884 15.4931 73.6114 20.044 74.2493 21.0406C74.8871 22.0371 75.3102 23.3172 75.7354 23.3172C76.1606 23.3172 75.5944 24.3486 75.0281 24.4184C74.4619 24.4903 71.9496 25.2012 70.3941 26.4813C68.8385 27.7613 67.3524 29.2899 64.9464 29.7522C62.5404 30.2145 55.713 33.4157 55.0773 34.41C54.4416 35.4044 49.5581 39.0678 48.4256 40.3828C47.2931 41.6977 46.1259 43.5469 45.347 44.5085C44.5682 45.468 36.1852 56.4562 34.8054 57.8431C33.4256 59.2299 30.807 67.2176 35.3825 71.7228C39.958 76.2258 51.3262 82.8636 51.3262 82.8636C51.3262 82.8636 48.354 86.7516 47.2692 88.2214C46.1845 89.6911 43.4965 93.7689 41.75 95.1907C40.0035 96.6124 37.8818 104.009 37.834 105.906C37.7863 107.803 39.0142 111.737 38.5413 113.065C38.0705 114.393 37.5043 124.112 37.5043 124.112C37.5043 124.112 37.8818 137.861 37.693 139.047C37.5043 140.234 33.4473 142.984 32.3148 144.264C31.1823 145.544 27.1253 152.133 26.2293 154.552C25.3333 156.97 23.4458 162.611 21.324 164.129C19.2023 165.647 17.5035 170.102 14.6723 171.24C11.8433 172.378 9.2941 175.887 7.78629 176.692C6.27631 177.499 4.53203 178.541 3.06978 179.11C1.60753 179.679 -1.03494 184.04 0.427313 186.221C1.88956 188.402 6.98358 192.1 8.58684 192.527C10.1901 192.955 13.0213 189.826 13.7286 189.161C14.4358 188.498 15.8981 186.363 17.3603 184.468C18.8226 182.571 20.5213 179.11 21.8404 177.592C23.1616 176.075 31.4166 169.153 31.4166 169.153L39.1986 163.464C39.1986 163.464 40.0947 166.593 41.2271 167.731C42.3596 168.87 42.7371 169.059 43.0669 170.529C43.3967 171.999 44.1516 174.511 44.1516 176.266C44.1516 178.022 44.2449 180.013 43.8219 181.483C43.3967 182.952 43.5398 186.033 43.1146 187.266C42.6894 188.498 41.0861 189.684 40.6609 190.916C40.2357 192.148 41.4636 192.955 40.4722 194.614C39.4807 196.274 36.7927 202.011 37.8774 202.674C38.9622 203.337 44.1972 204.002 46.3667 204.002C48.5362 204.002 51.5085 202.153 51.6017 200.066C51.695 197.979 51.695 192.765 52.168 191.437C52.6388 190.109 56.225 187.645 57.5918 185.89C58.9607 184.136 58.4878 183.188 59.054 182.287C59.6203 181.387 60.2342 178.305 59.9023 177.025C59.5725 175.745 57.6851 173.706 56.4593 172.996C55.2335 172.285 53.6758 171.667 53.8168 169.487C53.9578 167.306 55.138 165.647 56.1273 163.228C57.1188 160.81 57.1644 155.217 56.8346 153.13C56.5048 151.043 55.4678 150.238 56.5048 148.01C57.5419 145.781 59.9001 141.134 59.8068 138.385C59.8068 138.385 64.7924 136.579 65.7491 136.535C65.7491 136.535 76.0782 133.655 77.2822 133.123C78.4863 132.591 83.9687 129.424 85.4895 127.861C87.0103 126.297 90.9719 123.593 92.1412 122.492C93.3084 121.391 93.6968 119.612 94.7229 117.621C95.7491 115.63 99.4286 110.935 98.6498 109.513C97.8709 108.091 95.2545 106.1 95.3239 105.069C95.3933 104.037 98.1898 101.157 97.6583 100.376C97.1268 99.5934 97.552 97.319 98.5435 95.967C99.5349 94.615 102.683 88.8189 103.249 87.6457C103.815 86.4725 107.447 79.645 107.447 78.3649C107.447 77.0849 108.484 75.3317 108.816 74.3352C109.146 73.3386 112.448 64.4743 112.684 63.6195C112.921 62.7669 116.364 52.0513 117.449 52.3348C118.533 52.6183 122.024 55.6537 123.723 57.1234C125.422 58.5932 129.29 60.7258 130.186 61.5327C131.082 62.3395 132.167 65.3728 132.592 66.6048C133.017 67.8369 134.054 70.8723 134.243 71.2038C134.432 71.5352 121.837 65.5625 115.659 76.845C111.224 88.8865 119.575 93.4854 119.575 93.4854C119.575 93.4854 119.197 95.6181 121.319 96.7564C123.441 97.8947 127.782 98.7473 129.763 98.889C131.743 99.0308 136.319 101.022 137.074 100.596C137.829 100.171 143.394 97.9884 144.526 97.0878C145.659 96.1872 150.753 93.058 149.904 88.9802V88.9824ZM57.5961 72.7673C55.2378 72.1502 50.8034 63.7591 50.8034 63.7591L63.7749 52.3806C63.2564 55.983 57.5961 72.7673 57.5961 72.7673Z" fill="white"/>
</g>
<defs>
<clipPath id="clip0_487_2671">
<rect width="150" height="204" fill="white"/>
</clipPath>
</defs>
</svg>
