<svg width="16" height="16" viewBox="0 0 16 16" fill="none" xmlns="http://www.w3.org/2000/svg">
    <g clip-path="url(#clip0_191_1220)">
        <path
            d="M15.5866 13.731L12.4968 10.6745C13.3415 9.40883 13.7391 7.8972 13.6263 6.37974C13.5135 4.86227 12.8969 3.426 11.8744 2.29909C10.852 1.17218 9.48223 0.419252 7.98284 0.159922C6.48346 -0.099407 4.94041 0.149732 3.59883 0.867762C2.25725 1.58579 1.19407 2.73153 0.578194 4.12297C-0.0376811 5.51442 -0.170934 7.07176 0.199603 8.5476C0.570141 10.0234 1.42322 11.3331 2.62332 12.2687C3.82341 13.2042 5.30171 13.7118 6.82335 13.711C8.17379 13.7123 9.49361 13.3087 10.6123 12.5523L13.7087 15.6487C13.9583 15.8968 14.2958 16.036 14.6477 16.036C14.9995 16.036 15.337 15.8968 15.5866 15.6487C15.7155 15.5245 15.818 15.3756 15.888 15.2108C15.958 15.0461 15.9941 14.8689 15.9941 14.6899C15.9941 14.5108 15.958 14.3337 15.888 14.1689C15.818 14.0041 15.7155 13.8552 15.5866 13.731ZM6.82335 2.01781C7.77791 2.01781 8.71105 2.30079 9.50482 2.83097C10.2986 3.36116 10.9174 4.11476 11.283 4.99653C11.6486 5.8783 11.7446 6.84866 11.5588 7.78498C11.3731 8.72129 10.914 9.58152 10.2394 10.257C9.56494 10.9324 8.70533 11.3927 7.76928 11.5798C6.83322 11.7668 5.86273 11.6721 4.98046 11.3078C4.09818 10.9434 3.34373 10.3256 2.81245 9.53258C2.28117 8.73953 1.99691 7.80679 1.99559 6.85223C1.99559 5.57122 2.50401 4.34257 3.4092 3.43613C4.31439 2.52969 5.54234 2.01957 6.82335 2.01781Z"
            fill="#6D7380" />
    </g>
    <defs>
        <clipPath id="clip0_191_1220">
            <rect width="16" height="16" fill="white" />
        </clipPath>
    </defs>
</svg>