<svg width="41" height="24" viewBox="0 0 41 24" fill="none" xmlns="http://www.w3.org/2000/svg">
    <rect width="41" height="24" rx="8" fill="#2B313C" />
    <path
        d="M10.856 17C9.554 17 8.714 16.174 8.714 14.886C8.714 13.528 9.526 12.73 11.122 12.73H11.948V11.19H11.122C9.526 11.19 8.714 10.392 8.714 9.034C8.714 7.746 9.554 6.92 10.856 6.92C12.424 6.92 12.928 7.9 12.928 9.076V10.238H14.468V9.076C14.468 7.9 14.972 6.92 16.54 6.92C17.842 6.92 18.682 7.746 18.682 9.034C18.682 10.392 17.87 11.19 16.274 11.19H15.448V12.73H16.274C17.87 12.73 18.682 13.528 18.682 14.886C18.682 16.174 17.842 17 16.54 17C14.972 17 14.468 16.02 14.468 14.844V13.682H12.928V14.844C12.928 16.02 12.424 17 10.856 17ZM15.448 9.048V10.238H16.274C17.268 10.238 17.688 9.832 17.688 9.034C17.688 8.208 17.198 7.886 16.54 7.886C15.812 7.886 15.448 8.334 15.448 9.048ZM11.122 10.238H11.948V9.048C11.948 8.334 11.584 7.886 10.856 7.886C10.198 7.886 9.708 8.208 9.708 9.034C9.708 9.832 10.128 10.238 11.122 10.238ZM12.928 12.73H14.468V11.19H12.928V12.73ZM10.856 16.034C11.584 16.034 11.948 15.586 11.948 14.872V13.682H11.122C10.128 13.682 9.708 14.088 9.708 14.886C9.708 15.712 10.198 16.034 10.856 16.034ZM15.448 14.872C15.448 15.586 15.812 16.034 16.54 16.034C17.198 16.034 17.688 15.712 17.688 14.886C17.688 14.088 17.268 13.682 16.274 13.682H15.448V14.872ZM30.3083 17L26.9483 12.492L25.5343 14.004V17H24.1623V7.074H25.5343V12.184L30.1823 7.074H31.9883L27.8583 11.498L32.0443 17H30.3083Z"
        fill="currentColor" />
</svg>