<svg width="24" height="24" viewBox="0 0 24 24" fill="none" xmlns="http://www.w3.org/2000/svg">
<g clip-path="url(#clip0_678_9073)">
<path d="M18.874 18C18.3148 17.9991 17.7629 17.8734 17.2585 17.6321C16.7541 17.3908 16.3099 17.0399 15.9584 16.6051C15.6068 16.1703 15.3567 15.6625 15.2264 15.1187C15.0961 14.5749 15.0888 14.0089 15.205 13.462C15.4009 12.6108 15.8827 11.8525 16.57 11.3135C17.2573 10.7745 18.1086 10.4874 18.982 10.5H21.375C21.5076 10.5 21.6348 10.4473 21.7286 10.3536C21.8223 10.2598 21.875 10.1326 21.875 10C21.875 9.207 21.875 7.746 21.875 7.746C21.875 7.08296 21.6116 6.44707 21.1428 5.97823C20.6739 5.50939 20.038 5.246 19.375 5.246C14.899 5.246 28.237 5.236 5.375 5.236C5.17609 5.236 4.98532 5.15698 4.84467 5.01633C4.70402 4.87568 4.625 4.68491 4.625 4.486C4.625 4.28709 4.70402 4.09632 4.84467 3.95567C4.98532 3.81502 5.17609 3.736 5.375 3.736H18.625C18.6911 3.736 18.7546 3.7098 18.8014 3.66313C18.8483 3.61646 18.8747 3.55313 18.875 3.487V3.25C18.875 1.871 17.305 0.75 15.375 0.75H4.375C3.44674 0.75 2.5565 1.11875 1.90013 1.77513C1.24375 2.4315 0.875 3.32174 0.875 4.25V19.75C0.875 20.6783 1.24375 21.5685 1.90013 22.2249C2.5565 22.8813 3.44674 23.25 4.375 23.25H19.375C20.038 23.25 20.6739 22.9866 21.1428 22.5178C21.6116 22.0489 21.875 21.413 21.875 20.75V18.25C21.875 18.1837 21.8487 18.1201 21.8018 18.0732C21.7549 18.0263 21.6913 18 21.625 18H18.874Z" fill="white"/>
<path d="M21.874 12H18.874C18.2773 12 17.705 12.2371 17.283 12.659C16.8611 13.081 16.624 13.6533 16.624 14.25C16.624 14.8467 16.8611 15.419 17.283 15.841C17.705 16.2629 18.2773 16.5 18.874 16.5H21.874C22.2266 16.4392 22.546 16.2549 22.775 15.98C23.0041 15.7052 23.1278 15.3578 23.124 15V13.5C23.1278 13.1422 23.0041 12.7948 22.775 12.52C22.546 12.2451 22.2266 12.0608 21.874 12Z" fill="white"/>
</g>
<defs>
<clipPath id="clip0_678_9073">
<rect width="24" height="24" fill="white"/>
</clipPath>
</defs>
</svg>
