<svg width="35" height="40" viewBox="0 0 35 40" fill="none" xmlns="http://www.w3.org/2000/svg">
<g clip-path="url(#clip0_487_5117)">
<path d="M22.0692 31.0891V31.7925H12.9307V31.0891C16.4308 27.5717 16.5667 19.0522 16.5667 19.0522H18.4334C18.4334 19.0522 18.5693 27.572 22.0695 31.0891H22.0692Z" fill="#F4C632"/>
<path d="M22.0695 31.0891V31.7925H12.9307V31.0891C15.4312 28.5765 16.2147 23.5105 16.4584 20.822C16.5556 19.7471 16.5667 19.0522 16.5667 19.0522H18.4334C18.4334 19.0522 18.4445 19.7471 18.5418 20.822C18.7854 23.5105 19.569 28.5765 22.0695 31.0891Z" fill="#F4C632"/>
<path d="M17.3366 19.5801C17.2718 21.4918 16.9056 28.0984 14.9007 31.0895V31.2655H13.4902C16.4635 28.0329 16.9838 21.4849 17.0731 19.5804H17.3366V19.5801Z" fill="#F6ED9E"/>
<path d="M22.069 31.0891V31.7925H20.5622V31.0891C18.0375 27.5717 17.9395 19.0522 17.9395 19.0522H18.433C18.433 19.0522 18.5689 27.572 22.069 31.0891Z" fill="#DE7D11"/>
<path d="M25.0644 31.7925H10.1309V38.9251H25.0644V31.7925Z" fill="#484F5F"/>
<path d="M25.0643 31.7925H21.3311V38.9251H25.0643V31.7925Z" fill="#3B4449"/>
<path d="M14.3308 31.7925H11.1807V38.9251H14.3308V31.7925Z" fill="#636D79"/>
<path d="M21.9747 33.4294H13.2197V37.6109H21.9747V33.4294Z" fill="#403F4F"/>
<path d="M21.9747 33.2683H13.2197V37.4497H21.9747V33.2683Z" fill="#F4C632"/>
<path d="M20.1423 33.2683L15.9814 37.4497H13.3061L13.2842 37.4275L17.4228 33.2683H20.1423Z" fill="#F6ED9E"/>
<path d="M21.975 33.2683V33.5197L18.0644 37.4497H16.6445L20.8059 33.2683H21.975Z" fill="#F6ED9E"/>
<path d="M25.5697 38.925H9.43066V39.9999H25.5697V38.925Z" fill="#403F4F"/>
<path d="M12.8627 38.925H10.9277V39.9996H12.8627V38.925Z" fill="#4A4A5B"/>
<path d="M25.5688 38.925H21.0918V39.9996H25.5688V38.925Z" fill="#31313F"/>
<path d="M22.0692 31.0891H12.9307V31.7925H22.0692V31.0891Z" fill="#DE7D11"/>
<path d="M18.5414 20.822C18.1991 20.8842 17.8514 20.9162 17.4997 20.9162C17.148 20.9162 16.8003 20.8842 16.458 20.822C16.5552 19.7471 16.5663 19.0522 16.5663 19.0522H18.4331C18.4331 19.0522 18.4442 19.7471 18.5414 20.822Z" fill="#DE7D11"/>
<path d="M34.997 3.37373C34.9876 3.50201 34.7397 6.5563 33.1012 9.64516C31.6137 12.4497 28.6876 15.7712 23.132 16.0274C22.9051 16.038 22.674 16.0432 22.4383 16.0432C21.9231 16.0432 21.5049 15.6229 21.5049 15.1052C21.5049 14.5874 21.9231 14.1672 22.4383 14.1672C23.0518 14.1672 23.6417 14.126 24.2075 14.0434C27.3866 13.5826 29.8098 11.8286 31.4269 8.81258C32.3598 7.07316 32.7953 5.30744 32.9903 4.24001H26.8723C26.6821 4.24001 26.5059 4.18316 26.3583 4.08516C26.1058 3.91744 25.9389 3.62916 25.9389 3.30201C25.9389 2.97487 26.1041 2.69001 26.3543 2.52173C26.5024 2.42201 26.6804 2.36401 26.8723 2.36401H34.0667C34.3269 2.36401 34.5748 2.47316 34.7516 2.66487C34.9279 2.85659 35.0172 3.11344 34.9973 3.37373H34.997Z" fill="#F4C632"/>
<path d="M13.4946 15.1052C13.4946 15.6229 13.0763 16.0432 12.5612 16.0432C11.5291 16.0432 10.583 15.9406 9.71555 15.756C5.53253 14.8649 3.18045 12.0629 1.89822 9.64516C0.259752 6.5563 0.0118358 3.50201 0.00273794 3.37373C-0.0171636 3.11344 0.072109 2.85659 0.24838 2.66487C0.425219 2.47316 0.673136 2.36401 0.933278 2.36401H8.12769C8.64342 2.36401 9.06107 2.7843 9.06107 3.30201C9.06107 3.81973 8.64342 4.24001 8.12769 4.24001H2.00938C2.20413 5.30744 2.63998 7.07316 3.57279 8.81258C4.78508 11.0743 6.45112 12.626 8.54932 13.4549C9.74682 13.9292 11.0856 14.1672 12.5615 14.1672C13.0766 14.1672 13.4949 14.5869 13.4949 15.1052H13.4946Z" fill="#F4C632"/>
<path d="M8.12794 4.24026H6.66318C6.65437 3.95254 6.65039 3.66226 6.65039 3.37083C6.65039 3.03312 6.65636 2.6974 6.66717 2.36426H8.12794C8.64367 2.36426 9.06132 2.78454 9.06132 3.30226C9.06132 3.81997 8.64367 4.24026 8.12794 4.24026Z" fill="#DE7D11"/>
<path d="M13.4946 15.1051C13.4946 15.6228 13.0764 16.0431 12.5613 16.0431C11.5292 16.0431 10.5831 15.9405 9.71563 15.7559C9.28803 15.0519 8.89711 14.2816 8.54883 13.4551C9.74633 13.9294 11.0851 14.1674 12.561 14.1674C13.0761 14.1674 13.4944 14.5871 13.4944 15.1054L13.4946 15.1051Z" fill="#DE7D11"/>
<path d="M26.8728 4.24026H28.3376C28.3464 3.95254 28.3504 3.66226 28.3504 3.37083C28.3504 3.03312 28.3444 2.6974 28.3336 2.36426H26.8728C26.3571 2.36426 25.9395 2.78454 25.9395 3.30226C25.9395 3.81997 26.3571 4.24026 26.8728 4.24026Z" fill="#DE7D11"/>
<path d="M21.5049 15.1051C21.5049 15.6228 21.9231 16.0431 22.4383 16.0431C23.4703 16.0431 24.4165 15.9405 25.2839 15.7559C25.7115 15.0519 26.1024 14.2816 26.4507 13.4551C25.2532 13.9294 23.9144 14.1674 22.4385 14.1674C21.9234 14.1674 21.5052 14.5871 21.5052 15.1054L21.5049 15.1051Z" fill="#DE7D11"/>
<path d="M27.3583 3.37086C27.3583 12.8086 22.9448 20.4591 17.5 20.4591C12.0552 20.4591 7.6416 12.8083 7.6416 3.37086C7.6416 2.88714 7.65326 2.40829 7.676 1.93457C7.70756 1.27857 7.76044 0.632571 7.83351 0H27.1664C27.2392 0.632571 27.2924 1.27857 27.3239 1.93457C27.3467 2.40829 27.3583 2.88714 27.3583 3.37086Z" fill="#F4C632"/>
<path d="M22.4383 14.1672C23.0518 14.1672 23.6417 14.126 24.2075 14.0435C23.8797 14.7535 23.5198 15.4169 23.132 16.0272C22.9051 16.0377 22.674 16.0429 22.4383 16.0429C21.9231 16.0429 21.5049 15.6226 21.5049 15.1049C21.5049 14.5872 21.9231 14.1669 22.4383 14.1669V14.1672Z" fill="#F4C632"/>
<path d="M27.3442 2.46204H7.65527C7.66039 2.28547 7.6675 2.10976 7.67574 1.93433C7.69849 1.45947 7.73289 0.990613 7.77781 0.52747C7.79402 0.350327 7.81278 0.174613 7.83325 -0.000244141H27.1662C27.1867 0.174327 27.2051 0.350327 27.2216 0.52747C27.2665 0.990613 27.3009 1.45947 27.3237 1.93433C27.3319 2.10947 27.3388 2.28547 27.3442 2.46204Z" fill="#DE7D11"/>
<path d="M15.8648 19.115C14.5208 18.3324 13.2813 17.0027 12.2353 15.1895C10.4189 12.041 9.41895 7.84353 9.41895 3.37068C9.41895 3.15325 9.42122 2.93439 9.42662 2.71582H11.9385C11.928 3.06468 11.9234 3.41525 11.9234 3.76268C11.9234 8.85296 12.9239 13.6295 14.7403 17.2118C15.0943 17.9101 15.4702 18.5455 15.8651 19.1147L15.8648 19.115Z" fill="#F6ED9E"/>
<path d="M27.3587 3.37082C27.3587 12.6274 23.1131 20.1648 17.8125 20.4505C21.235 18.7522 23.8006 11.7017 23.8006 3.26253C23.8006 2.76482 23.7918 2.27253 23.7744 1.78539C23.7523 1.1811 23.7173 0.585387 23.6701 0.000244141H27.1671C27.2399 0.632816 27.293 1.27882 27.3246 1.93482C27.3473 2.40853 27.359 2.88739 27.359 3.3711L27.3587 3.37082Z" fill="#DE7D11"/>
<path d="M27.5774 0H7.42342C6.99649 0 6.65039 0.347811 6.65039 0.776857V1.15771C6.65039 1.58676 6.99649 1.93457 7.42342 1.93457H27.5774C28.0044 1.93457 28.3505 1.58676 28.3505 1.15771V0.776857C28.3505 0.347811 28.0044 0 27.5774 0Z" fill="#F4C632"/>
</g>
<defs>
<clipPath id="clip0_487_5117">
<rect width="35" height="40" fill="white"/>
</clipPath>
</defs>
</svg>
