<svg width="185" height="252" viewBox="0 0 185 252" fill="none" xmlns="http://www.w3.org/2000/svg">
<g id="Logo" clip-path="url(#clip0_449_17281)">
<g id="Clip path group">
<mask id="mask0_449_17281" style="mask-type:luminance" maskUnits="userSpaceOnUse" x="-35" y="-1" width="252" height="253">
<g id="clippath">
<path id="Vector" d="M216.98 -0.211243H-35V252H216.98V-0.211243Z" fill="white"/>
</g>
</mask>
<g mask="url(#mask0_449_17281)">
<g id="Group">
<g id="Clip path group_2">
<mask id="mask1_449_17281" style="mask-type:luminance" maskUnits="userSpaceOnUse" x="-35" y="-1" width="252" height="253">
<g id="clippath-1">
<path id="Vector_2" d="M216.98 -0.211243H-35V252H216.98V-0.211243Z" fill="white"/>
</g>
</mask>
<g mask="url(#mask1_449_17281)">
<g id="Group_2">
<path id="Vector_3" d="M102.208 168.811C102.208 168.811 154.731 122.247 127.466 8.70697C127.466 8.70697 133.282 6.41689 143.674 4.88849C143.77 4.88849 189.811 130.353 102.208 168.806M106.401 149.627C111.546 131.69 114.313 105.834 114.696 73.5858C114.888 62.9021 114.696 51.9259 114.217 41.8122C103.352 43.8148 88.1929 64.713 81.1375 94.6706C77.3225 110.984 76.6572 126.918 79.1367 139.514C81.2332 150.011 85.5219 157.068 90.5766 158.218C95.0568 159.267 100.777 156.119 106.401 149.627ZM68.9366 90.948C73.1295 73.2024 80.2807 57.2677 88.9539 45.8173C96.6745 35.7037 105.161 29.9785 113.356 29.0251C112.973 23.2999 112.403 18.0539 111.829 13.5696C84.3729 21.8724 69.3146 31.7944 69.3146 31.7944C69.3146 31.7944 68.2663 53.7418 68.3621 66.428C68.4578 75.3008 68.6493 83.4119 68.9366 90.948ZM63.5039 157.451C55.7832 148.674 49.1108 136.079 44.7264 121.864C40.3419 107.745 38.7192 93.5256 40.2462 81.8835C41.3902 73.1066 44.1569 66.2363 48.4456 61.8479C48.7328 55.4568 49.2066 49.54 49.6853 44.5765L49.7811 43.048C49.7811 43.048 38.3412 50.3016 28.3326 59.4569C28.3326 59.4569 27.3801 68.0422 27.5716 78.2517C27.7631 91.513 29.5723 104.3 32.9085 115.175C36.915 127.963 42.8214 139.125 50.6378 148.286C62.365 162.026 74.5658 166.985 77.7105 168.13C73.0388 166.319 68.1756 162.692 63.5089 157.446" fill="white"/>
</g>
</g>
</g>
<g id="Clip path group_3">
<mask id="mask2_449_17281" style="mask-type:luminance" maskUnits="userSpaceOnUse" x="27" y="4" width="129" height="165">
<g id="clippath-2">
<path id="Vector_4" d="M28.3326 59.467C28.3326 59.467 27.3801 68.0522 27.5716 78.2617C27.7631 91.523 29.5723 104.31 32.9085 115.185C36.91 127.973 42.8214 139.135 50.6378 148.296C62.365 162.036 74.5658 166.995 77.7105 168.14C73.0388 166.329 68.1807 162.702 63.5089 157.456C55.7883 148.679 49.1159 136.084 44.7314 121.869C40.347 107.745 38.7242 93.5306 40.2512 81.8936C41.3952 73.1166 44.1569 66.2464 48.4506 61.8579C48.7379 55.4669 49.2116 49.55 49.6904 44.5865L49.7861 43.0581C49.7861 43.0581 38.3462 50.3117 28.3376 59.467M81.1475 94.6756C77.3326 110.994 76.6673 126.923 79.1468 139.519C81.2433 150.016 85.532 157.073 90.5867 158.218C95.0669 159.267 100.787 156.119 106.411 149.632C111.556 131.695 114.323 105.839 114.706 73.5908C114.898 62.9021 114.706 51.9309 114.227 41.8172C103.362 43.8198 88.203 64.718 81.1475 94.6756ZM69.3297 31.7994C69.3297 31.7994 68.2814 53.7468 68.3772 66.433C68.4729 75.3058 68.6645 83.4169 68.9467 90.953C73.1396 73.2074 80.2908 57.2727 88.9639 45.8223C96.6846 35.7087 105.171 29.9835 113.366 29.0301C112.983 23.3049 112.413 18.0589 111.839 13.5746C84.388 21.8774 69.3246 31.7994 69.3246 31.7994M127.472 8.71197C154.736 122.252 102.213 168.811 102.213 168.811C189.816 130.358 143.775 4.89349 143.679 4.89349C133.287 6.42189 127.472 8.71197 127.472 8.71197Z" fill="white"/>
</g>
</mask>
<g mask="url(#mask2_449_17281)">
<g id="Group_3">
<g id="Group_4">
<path id="Vector_5" d="M178.79 -36.0001L-13.8098 16.015L38.4031 209.702L231.003 157.687L178.79 -36.0001Z" fill="white"/>
</g>
</g>
</g>
</g>
<g id="Clip path group_4">
<mask id="mask3_449_17281" style="mask-type:luminance" maskUnits="userSpaceOnUse" x="64" y="28" width="70" height="144">
<g id="clippath-3">
<path id="Vector_6" d="M89.0547 45.8223C80.0943 57.4644 72.9431 73.7774 68.7502 91.8105C64.5573 109.844 63.7912 127.685 66.6537 141.996C69.8942 158.026 77.3276 168.236 87.7192 170.621C88.959 170.909 90.2945 171.101 91.5342 171.101C95.1577 171.101 98.5896 170.243 102.309 168.715C102.405 168.619 104.98 166.329 108.694 161.557C104.783 163.56 100.686 164.609 96.4932 164.039C80.7646 162.132 78.3809 145.34 77.5241 134.747C76.4759 121.773 78.5724 102.02 82.8611 88.1837C85.2448 79.6943 88.2938 72.0573 91.7257 65.5705C95.1577 58.6044 99.7336 51.0683 105.927 43.6231C114.6 33.2219 126.61 33.7969 133.569 41.5247C133.378 40.2838 133.282 39.0429 133.091 37.802C129.659 33.4135 125.37 30.5484 120.507 29.4034C118.985 29.0553 117.443 28.8788 115.891 28.8788C106.87 28.8788 97.5112 34.7402 89.0497 45.8122" fill="white"/>
</g>
</mask>
<g mask="url(#mask3_449_17281)">
<g id="Group_5">
<path id="Vector_7" d="M100.262 -5.99819L-7.17676 96.7665L97.0987 205.985L204.537 103.22L100.262 -5.99819Z" fill="#DE0A15"/>
</g>
</g>
</g>
<g id="Clip path group_5">
<mask id="mask4_449_17281" style="mask-type:luminance" maskUnits="userSpaceOnUse" x="-35" y="0" width="252" height="253">
<g id="clippath-4">
<path id="Vector_8" d="M216.98 0.000183105H-35V252.211H216.98V0.000183105Z" fill="white"/>
</g>
</mask>
<g mask="url(#mask4_449_17281)">
<g id="Group_6">
<path id="Vector_9" d="M60.6466 61.8726C57.4061 64.2585 53.7826 69.3129 52.6386 78.1907C51.4946 86.8718 52.2556 97.273 54.6394 108.148C52.8301 99.2756 52.2556 90.8769 53.2081 83.7242C54.1606 76.0923 56.8316 70.6546 60.072 69.6054C60.455 69.5096 60.9288 69.4137 61.5033 69.4137C63.504 69.4137 65.8877 70.4629 68.5587 72.4655V60.9193C65.5098 60.1576 62.743 60.3493 60.6466 61.8726Z" fill="#DE0A15"/>
</g>
</g>
</g>
<g id="Clip path group_6">
<mask id="mask5_449_17281" style="mask-type:luminance" maskUnits="userSpaceOnUse" x="77" y="35" width="59" height="130">
<g id="clippath-7">
<path id="Vector_10" d="M105.927 43.6281C99.7286 51.0683 95.1577 58.6095 91.7257 65.5755C99.2549 50.9775 108.503 42.0089 115.462 41.6256C116.223 41.6256 116.893 41.6256 117.654 41.8172C122.709 42.9623 126.998 50.0242 129.094 60.5162C131.574 73.1116 130.904 89.0463 127.094 105.359C124.518 116.522 120.804 126.444 116.515 134.555C113.371 140.664 109.939 145.718 106.507 149.632L106.315 149.824C106.315 149.92 106.22 149.92 106.22 150.016L106.124 150.112L105.741 150.495L105.645 150.591L105.549 150.687L105.454 150.783L105.358 150.878L105.166 151.07L105.071 151.166L104.879 151.358C104.783 151.549 104.592 151.645 104.496 151.741C104.017 152.22 103.448 152.694 102.969 153.174C98.4888 157.179 94.2001 158.995 90.6724 158.228C85.6228 157.083 81.329 150.021 79.2325 139.529C76.7531 126.933 77.4183 110.999 81.2333 94.6857C81.712 92.4915 82.2815 90.2973 82.856 88.1989C78.5673 102.035 76.4709 121.783 77.5191 134.762C78.3758 145.35 80.6638 162.051 96.4881 164.054C100.777 164.629 104.874 163.575 108.689 161.572C110.594 159.09 112.786 155.943 115.17 152.124V152.028C115.266 151.933 115.266 151.837 115.361 151.741C126.61 132.85 140.338 97.3541 133.569 41.5398C130.193 37.8373 125.698 35.7793 120.981 35.7793C115.845 35.7793 110.448 38.2207 105.922 43.6382" fill="white"/>
</g>
</mask>
<g mask="url(#mask5_449_17281)">
<g id="Group_7">
<path id="Vector_11" d="M140.338 35.7692H76.4708V164.614H140.338V35.7692Z" fill="#DC0A0A"/>
</g>
</g>
</g>
<g id="Clip path group_7">
<mask id="mask6_449_17281" style="mask-type:luminance" maskUnits="userSpaceOnUse" x="-1" y="181" width="184" height="66">
<g id="clippath-8">
<path id="Vector_12" d="M182.368 181.497H-0.388062V246.895H182.368V181.497Z" fill="white"/>
</g>
</mask>
<g mask="url(#mask6_449_17281)">
<g id="Group_8">
<path id="Vector_13" d="M94.5579 244.237V239.712H99.1036V237.533H94.5579V233.977H96.1101C97.3196 233.927 98.5241 234.022 99.7134 234.259V231.793H91.2015V246.401H100.202L101.311 243.682C99.6882 244.076 98.0453 244.262 96.3772 244.242C95.7725 244.242 95.1677 244.242 94.5529 244.186L94.563 244.232L94.5579 244.237ZM79.5903 239.127C79.555 238.487 79.6407 237.866 79.8524 237.261C80.064 236.655 80.3815 236.116 80.8099 235.637C81.2383 235.157 81.7372 234.784 82.3167 234.507C82.8912 234.229 83.501 234.073 84.1411 234.038H84.509C85.8696 233.942 87.1346 234.259 88.2937 234.986V232.141C87.0187 231.621 85.6983 231.384 84.3225 231.42C79.7768 231.42 75.8812 234.264 75.8812 239.117C75.8812 243.97 79.4744 246.769 84.1461 246.769C85.4665 246.794 86.7516 246.582 87.9964 246.134L89.3319 242.93C87.9409 243.904 86.3938 244.363 84.7005 244.308C81.5054 244.308 79.6306 242.26 79.6306 239.092L79.6004 239.132L79.5903 239.127ZM70.6349 240.721L63.2872 231.848H60.1375V246.411H63.0705V236.797L69.5968 244.666C70.6148 245.952 71.9402 246.704 73.568 246.91V231.798H70.6349V240.721ZM21.1007 246.411H24.4672V239.717H28.6198V237.538H24.4672V233.982H25.7321C26.9416 233.952 28.1411 234.048 29.3354 234.264V231.798H21.1007V246.406V246.411ZM112.665 244.166C114.469 242.078 117.952 238.194 117.952 235.339C117.952 232.484 115.447 231.364 112.988 231.364C111.556 231.374 110.191 231.687 108.901 232.312L108.382 235.157C109.551 234.345 110.846 233.932 112.267 233.916C113.421 233.916 114.575 234.421 114.575 235.747C114.55 236.333 114.394 236.877 114.101 237.387C113.507 238.431 112.837 239.42 112.081 240.353C110.493 242.487 108.775 244.514 106.925 246.431H118.274L119.222 243.899C117.896 244.166 116.556 244.287 115.205 244.267C114.384 244.267 113.552 244.267 112.726 244.181L112.67 244.161L112.665 244.166ZM131.407 239.001C131.407 236.716 130.46 233.836 127.749 233.836C125.037 233.836 124.08 236.736 124.08 239.001C124.08 241.266 125.027 244.151 127.749 244.151C130.47 244.151 131.407 241.306 131.407 239.001ZM135.187 239.001C135.187 243.364 132.209 246.744 127.774 246.744C123.339 246.744 120.34 243.359 120.34 239.001C120.34 234.643 123.319 231.263 127.774 231.263C132.229 231.263 135.187 234.648 135.187 239.001ZM157.568 238.053C157.875 237.952 158.158 237.806 158.42 237.609C158.677 237.412 158.898 237.18 159.08 236.913C159.261 236.645 159.397 236.353 159.483 236.04C159.569 235.727 159.604 235.41 159.589 235.082C159.589 232.333 156.893 231.339 154.569 231.339C153.405 231.339 152.271 231.536 151.178 231.929L150.744 234.613C151.767 234.118 152.851 233.871 153.985 233.866C155.053 233.866 156.293 234.179 156.293 235.485C156.293 237.18 154.267 237.18 153.053 237.18H152.105V239.732C152.73 239.647 153.36 239.606 153.995 239.616C155.386 239.616 157.19 240.015 157.19 241.76C157.19 243.778 155.149 244.282 153.511 244.282C152.145 244.282 150.805 244.096 149.495 243.722L150.714 246.507C151.616 246.699 152.528 246.794 153.446 246.789C156.605 246.789 160.667 245.548 160.667 241.71C160.667 239.642 159.513 238.552 157.573 238.068L157.563 238.048L157.568 238.053ZM141.325 244.111C143.13 242.028 146.612 238.138 146.612 235.283C146.612 232.428 144.117 231.309 141.658 231.309C140.227 231.319 138.866 231.631 137.576 232.257L137.047 235.102C138.221 234.29 139.516 233.876 140.942 233.861C142.096 233.861 143.251 234.365 143.251 235.692C143.225 236.277 143.064 236.827 142.767 237.331C142.177 238.376 141.502 239.369 140.741 240.297C139.158 242.436 137.44 244.464 135.585 246.376H146.929L147.877 243.843C146.551 244.111 145.211 244.232 143.855 244.212C143.024 244.212 142.202 244.212 141.371 244.126L141.325 244.106V244.111ZM52.2757 239.884L50.5723 235.586L48.9294 239.884H52.2757ZM38.2707 236.09C38.2707 234.431 36.8999 233.846 35.4334 233.846H34.7329V238.386H35.4334C36.8898 238.386 38.2707 237.795 38.2707 236.121V236.09ZM52.4521 231.747L58.5399 246.376H54.8257L53.2181 242.26H48.0374L46.46 246.376H39.7372L34.753 239.737V246.376H31.4067V231.747C32.5961 231.596 33.7905 231.531 34.9899 231.551C36.6479 231.455 38.2253 231.773 39.717 232.499C40.3419 232.857 40.8408 233.351 41.2087 233.972C41.5766 234.592 41.7732 235.268 41.7883 235.99C41.8135 236.444 41.758 236.882 41.622 237.316C41.4809 237.75 41.2692 238.138 40.982 238.492C40.6947 238.845 40.357 239.132 39.9589 239.354C39.5658 239.576 39.1425 239.722 38.694 239.783L43.4211 245.821L49.2167 231.752H52.4521V231.747ZM177.454 210.38C177.484 209.845 177.394 209.336 177.177 208.847C176.96 208.357 176.648 207.949 176.235 207.611C175.373 206.98 174.415 206.688 173.352 206.738H172.188V214.38C172.445 214.415 172.702 214.436 172.964 214.436C175.973 214.436 177.454 213.069 177.454 210.35V210.38ZM182.343 210.531C182.378 211.404 182.222 212.241 181.874 213.038C181.526 213.84 181.017 214.521 180.357 215.091C178.986 216.236 177.414 216.776 175.63 216.711C174.405 216.746 173.256 216.458 172.198 215.838V224.686H167.395V203.712C169.265 203.53 171.135 203.449 173.009 203.464C177.227 203.464 180.065 204.731 181.521 207.258C182.091 208.267 182.373 209.351 182.363 210.511L182.343 210.531ZM62.884 186.183C62.884 184.564 61.5334 184.014 59.6385 184.014C59.3614 184.014 59.0892 184.029 58.8171 184.059V188.478C59.0892 188.518 59.3664 188.534 59.6385 188.534C61.5284 188.534 62.884 187.706 62.884 186.183ZM64.1439 196.609L58.7818 189.895V196.609H55.4154V181.905C56.6551 181.754 57.8948 181.689 59.1396 181.704C60.8279 181.598 62.4355 181.916 63.9625 182.652C64.3506 182.823 64.7033 183.05 65.0208 183.343C65.3333 183.631 65.5953 183.963 65.7969 184.337C66.0036 184.71 66.1396 185.109 66.2152 185.527C66.2908 185.946 66.2908 186.37 66.2253 186.793C66.1598 187.217 66.0237 187.616 65.8272 187.994C65.6256 188.372 65.3736 188.705 65.0662 188.998C64.7588 189.29 64.406 189.527 64.023 189.704C63.6349 189.88 63.2318 189.991 62.8085 190.032L68.2563 196.67L64.154 196.614L64.1439 196.609ZM120.875 190.778L126.549 181.905H122.765L119.171 187.691L115.578 181.905H111.798L117.473 190.778V196.609H120.764L120.88 190.778H120.875ZM110.105 214.224C110.181 213.185 110.035 212.176 109.672 211.197C109.309 210.219 108.759 209.361 108.024 208.625C107.227 207.979 106.335 207.495 105.358 207.182C104.38 206.869 103.377 206.748 102.354 206.814C101.911 206.814 101.407 206.814 100.918 206.869V221.528C101.437 221.528 101.911 221.583 102.354 221.583C107.54 221.583 110.135 219.132 110.135 214.224H110.105ZM111.607 222.143C109.253 224 105.983 224.928 101.785 224.928C99.8848 224.958 97.9949 224.832 96.1101 224.549V203.833C97.9899 203.57 99.8848 203.444 101.785 203.464C105.983 203.464 109.258 204.393 111.607 206.244C112.847 207.187 113.799 208.362 114.464 209.77C115.13 211.177 115.442 212.66 115.387 214.219C115.442 215.772 115.135 217.245 114.464 218.648C113.794 220.05 112.842 221.215 111.602 222.143M158.878 215.883C158.878 219.137 157.215 221.069 154.474 221.069C151.732 221.069 150.059 219.076 150.059 215.742V203.747H145.332V215.853C145.332 221.891 148.955 224.963 154.448 224.963C159.942 224.963 163.676 221.911 163.676 215.702V203.747H158.949L158.883 215.883H158.878ZM63.9172 213.154H64.8646C67.5709 213.154 68.9215 212.075 68.9215 209.921C68.9215 207.767 67.5709 206.718 64.8646 206.718H63.9172V213.154ZM63.9172 224.675H59.19V203.752C60.8984 203.535 62.6119 203.439 64.3354 203.469C67.3693 203.469 69.6321 203.913 71.0986 204.806C71.4362 204.998 71.7487 205.22 72.041 205.477C72.3333 205.729 72.5954 206.012 72.8322 206.319C73.0691 206.627 73.2707 206.95 73.447 207.298C73.6184 207.646 73.7545 208.004 73.8552 208.378C73.956 208.751 74.0216 209.134 74.0468 209.518C74.072 209.906 74.0619 210.289 74.0115 210.673C73.9611 211.056 73.8754 211.434 73.7545 211.803C73.6335 212.171 73.4722 212.519 73.2807 212.857C73.1648 213.059 73.0388 213.25 72.9028 213.437C72.041 214.486 70.9373 215.096 69.5917 215.268L76.9748 224.68H71.0835L63.9172 215.127V224.68V224.675ZM104.073 194.698H105.574C108.044 194.698 109.052 193.749 109.052 192.15C109.052 190.551 107.605 189.618 105.459 189.618H104.068V194.698H104.073ZM104.073 187.494H105.111C106.824 187.494 107.948 186.899 107.948 185.653C107.948 184.261 106.673 183.807 104.96 183.807H104.083L104.073 187.494ZM104.632 196.882C103.367 196.892 102.107 196.831 100.847 196.7V181.769C102.349 181.638 103.619 181.673 104.632 181.673C106.366 181.583 108.019 181.895 109.596 182.622C110.075 182.929 110.438 183.343 110.695 183.853C110.947 184.362 111.058 184.902 111.017 185.467C110.977 185.981 110.816 186.455 110.544 186.894C110.271 187.333 109.909 187.681 109.465 187.943L109.208 188.145C109.122 188.145 109.027 188.221 108.946 188.256C109.531 188.382 110.075 188.599 110.584 188.912L110.821 189.073C111.672 189.724 112.151 190.582 112.247 191.651V191.999C112.267 192.433 112.222 192.862 112.106 193.28C111.99 193.699 111.813 194.087 111.572 194.45C111.33 194.814 111.037 195.126 110.695 195.394C110.352 195.661 109.979 195.868 109.566 196.014C107.983 196.665 106.34 196.942 104.632 196.857V196.887V196.882ZM92.7487 197.194C93.7768 197.22 94.7696 197.053 95.7372 196.695C96.6997 196.337 97.5666 195.817 98.3275 195.126V189.341H95.1224V194.082C94.4219 194.39 93.6911 194.546 92.9301 194.546C92.2246 194.577 91.5392 194.466 90.879 194.203C90.2188 193.946 89.6443 193.563 89.1454 193.058C88.6666 192.539 88.2937 191.948 88.0367 191.288C87.7797 190.627 87.6486 189.946 87.6486 189.235C87.6486 188.523 87.7797 187.843 88.0367 187.182C88.2937 186.521 88.6616 185.931 89.1454 185.411C89.6443 184.902 90.2188 184.518 90.879 184.256C91.5392 183.994 92.2195 183.873 92.9301 183.898C94.3967 183.863 95.7624 184.221 97.0223 184.967V182.37C95.5759 181.744 94.059 181.451 92.4816 181.497C91.3931 181.441 90.3347 181.593 89.3067 181.961C88.2786 182.324 87.3563 182.874 86.545 183.605C85.8092 184.337 85.2447 185.179 84.8517 186.143C84.4586 187.106 84.2771 188.105 84.2923 189.144C84.2217 190.198 84.3779 191.222 84.7609 192.206C85.1439 193.189 85.7185 194.047 86.4845 194.778C87.3412 195.555 88.3139 196.145 89.3923 196.559C90.4708 196.968 91.5896 197.169 92.7437 197.159V197.194H92.7487ZM79.6155 203.782V224.675H92.2851L93.7768 220.958C91.4938 221.452 89.1807 221.659 86.8473 221.583C86.0359 221.598 85.2246 221.568 84.4182 221.487V203.747L79.6155 203.777V203.782ZM75.5687 197.144C79.5198 197.144 82.1857 194.955 82.1857 190.506V181.905H78.784V190.627C78.784 192.967 77.5845 194.36 75.609 194.36C73.6335 194.36 72.429 192.927 72.429 190.521V181.905H69.0172V190.607C69.0172 194.95 71.6177 197.159 75.5687 197.159V197.139V197.144ZM37.6155 214.209C37.5399 216.181 38.1144 217.941 39.334 219.49C39.9236 220.231 40.6544 220.801 41.5162 221.19C42.3779 221.583 43.2851 221.755 44.2325 221.709C45.1799 221.75 46.0921 221.578 46.9589 221.185C47.8257 220.796 48.5615 220.231 49.1612 219.49C49.6954 218.718 50.1036 217.886 50.3858 216.993C50.6681 216.095 50.8092 215.182 50.8092 214.244C50.8092 213.306 50.6681 212.388 50.3858 211.495C50.1036 210.602 49.6954 209.77 49.1612 208.998C48.8538 208.645 48.5162 208.332 48.1432 208.055C47.7703 207.777 47.3722 207.54 46.9488 207.349C46.5255 207.157 46.0871 207.011 45.6335 206.91C45.1799 206.809 44.7163 206.763 44.2527 206.763C43.789 206.763 43.3254 206.814 42.8718 206.91C42.4182 207.006 41.9798 207.152 41.5514 207.349C41.1281 207.54 40.73 207.777 40.357 208.055C39.9841 208.332 39.6414 208.65 39.339 208.998C38.1245 210.536 37.55 212.287 37.6205 214.249V214.214L37.6155 214.209ZM35.6198 222.269C35.0907 221.76 34.6169 221.2 34.1987 220.595C33.7804 219.989 33.4226 219.349 33.1303 218.678C32.838 218.002 32.6112 217.306 32.455 216.59C32.2987 215.868 32.2131 215.142 32.1979 214.405C32.1828 213.669 32.2433 212.938 32.3693 212.216C32.5003 211.49 32.6969 210.789 32.964 210.103C33.2311 209.417 33.5637 208.766 33.9568 208.146C34.3549 207.525 34.8034 206.95 35.3124 206.42L35.6148 206.118C36.7991 205.079 38.1295 204.302 39.6112 203.782C41.0928 203.263 42.6198 203.046 44.1871 203.121C45.7595 203.051 47.2815 203.278 48.7631 203.802C50.2447 204.327 51.5752 205.114 52.7494 206.158C53.2786 206.668 53.7523 207.227 54.1706 207.833C54.5889 208.438 54.9467 209.079 55.239 209.75C55.5313 210.425 55.7581 211.122 55.9143 211.838C56.0705 212.559 56.1562 213.286 56.1713 214.022C56.1864 214.758 56.1259 215.49 56 216.211C55.8689 216.938 55.6724 217.639 55.4053 218.325C55.1382 219.011 54.8056 219.661 54.4074 220.282C54.0144 220.902 53.5608 221.477 53.0518 222.007L52.7494 222.274C51.5651 223.303 50.2347 224.075 48.753 224.585C47.2714 225.099 45.7494 225.316 44.1821 225.24C42.6148 225.316 41.0928 225.099 39.6112 224.585C38.1295 224.07 36.7941 223.303 35.6097 222.274M24.5378 225.498L31.8653 203.757H27.2994L22.8444 218.118L17.8401 203.757H14.4384L9.71126 218.083L4.77749 203.757H-0.383057L5.72493 220.907C5.9366 221.629 6.22385 222.32 6.59678 222.976C7.1461 223.722 7.85164 224.267 8.70334 224.615C9.07123 224.786 9.92292 225.069 11.2483 225.498L15.8344 211.722L19.0093 221.124C19.2512 221.891 19.5939 222.607 20.0374 223.278C20.5867 223.878 21.2368 224.327 21.9928 224.625C23.1065 225.023 23.9582 225.316 24.5378 225.498ZM123.798 214.199C123.747 212.64 124.04 211.152 124.675 209.734C125.31 208.312 126.227 207.101 127.416 206.103C128.6 205.099 129.931 204.342 131.397 203.838C132.864 203.328 134.376 203.106 135.928 203.167C137.883 203.152 139.773 203.495 141.603 204.201V208.231C139.945 207.212 138.145 206.753 136.205 206.859C135.248 206.829 134.325 206.99 133.443 207.354C132.556 207.717 131.78 208.241 131.12 208.937C130.46 209.644 129.961 210.446 129.618 211.354C129.276 212.262 129.125 213.195 129.155 214.163C129.099 215.167 129.24 216.141 129.573 217.089C129.911 218.037 130.415 218.88 131.095 219.621C131.801 220.322 132.617 220.847 133.544 221.195C134.472 221.548 135.429 221.694 136.422 221.639C138.831 221.674 141.038 221.013 143.039 219.667L141.149 224.262C139.365 224.923 137.526 225.24 135.626 225.21C134.094 225.281 132.597 225.069 131.14 224.58C129.684 224.09 128.364 223.354 127.184 222.37C126.035 221.336 125.168 220.1 124.574 218.673C123.984 217.24 123.727 215.752 123.808 214.209" fill="white"/>
</g>
</g>
</g>
</g>
</g>
</g>
</g>
<defs>
<clipPath id="clip0_449_17281">
<rect width="185" height="252" fill="white"/>
</clipPath>
</defs>
</svg>
